<svg width="375" height="176" viewBox="0 0 375 176" fill="none" xmlns="http://www.w3.org/2000/svg">
<g clip-path="url(#clip0_112130_1727)">
<g filter="url(#filter0_d_112130_1727)">
<path fill-rule="evenodd" clip-rule="evenodd" d="M180 3.5V7.20404C181.793 8.76018 183 11.6687 183 15C183 17.7971 182.149 20.2961 180.815 21.9468C179.473 31.6942 181.267 55.5918 182.877 71.6043C185.289 73.3917 187.433 76.0285 189.179 79.2928L189.562 79.0714C202.837 71.395 229.006 56.2614 316.086 70.832C315.641 71.8999 312.091 73.6893 301.445 72.3037C290.799 70.918 308.46 75.2911 318.622 77.6508C314.914 78.1845 304.746 78.7912 293.732 76.9483C282.718 75.1054 295.869 81.2393 303.822 84.5365C301.076 86.0436 293.45 87.5209 284.917 81.3733C276.385 75.2257 289.464 84.7837 297.07 90.3312C294.281 91.2299 287.257 91.9225 280.012 88.225C283.9 90.4841 289.006 93.8554 287.886 94.871C286.57 96.0639 275.419 94.0804 270.008 92.9394C272.547 94.4595 277.152 97.7949 275.257 98.9758C273.196 100.261 261.591 99.8689 256.48 98.6883C258.836 99.7675 261.909 101.504 260.517 102.268C258.054 103.619 247.666 105.333 243.696 103.137C245.378 104.261 248.473 106.823 244.657 107.881C239.888 109.203 235.793 107.988 234.341 107.215C235.066 108.396 235.202 110.539 229.942 109.658C227.309 109.218 226.079 109.663 224.947 110.074C223.251 110.688 221.774 111.223 216.132 108.584C210.571 105.984 209.978 107.841 209.396 109.661C208.993 110.92 208.596 112.162 206.562 111.894C203.796 111.529 203.217 112.022 202.483 112.647C201.898 113.146 201.215 113.728 199.245 114.026C197.325 113.054 195.517 112.109 193.816 111.19C194.752 113.958 201.379 116.17 204.606 116.936L208.998 122.561C209.057 122.551 209.114 122.542 209.169 122.535L210.662 125.151C203.232 129.066 197.8 133.745 196.013 135.595L193.324 132.314C193.393 132.246 193.461 132.178 193.53 132.11L188.985 130.363L186.51 126.487C186.444 126.777 186.358 127.073 186.254 127.373C186.278 127.884 186.297 128.453 186.316 129.082C186.438 133.104 187.902 135.334 188.687 136.303C189.043 136.743 190.118 137.322 191.105 137.854C192.293 138.495 193.354 139.066 192.888 139.246C192.204 139.509 190.743 138.673 190.099 138.222C190.726 139.392 191.322 141.169 188.687 138.917C186.225 136.814 183.433 137.639 182.004 138.061C181.52 138.204 181.192 138.301 181.086 138.222C180.752 137.974 181.47 137.351 181.871 137.071C182.481 136.961 184.043 136.654 185.409 136.303C186.776 135.952 185.979 133.305 185.409 132.025C185.134 131.485 184.901 130.975 184.705 130.494C181.898 134.974 176.736 139.783 173.5 142.371C171.093 140.867 167.592 134.177 165.083 128.683C164.852 129.511 164.491 130.456 163.958 131.523C163.436 132.723 162.705 135.205 163.958 135.534C165.211 135.863 166.642 136.151 167.202 136.254C167.569 136.517 168.228 137.1 167.921 137.333C167.824 137.407 167.523 137.316 167.08 137.182C165.769 136.786 163.21 136.013 160.954 137.985C158.538 140.096 159.084 138.43 159.66 137.333C159.068 137.756 157.729 138.54 157.103 138.293C156.675 138.125 157.648 137.589 158.737 136.989C159.642 136.49 160.627 135.946 160.954 135.534C161.673 134.626 163.015 132.535 163.127 128.764C163.181 126.959 163.231 125.672 163.422 124.894C163.272 124.534 163.13 124.192 163 123.871L163.08 123.847C160.64 120.081 158.793 115.221 157.805 109.722C155.447 111.034 152.823 112.4 149.908 113.821C148.324 113.371 147.819 112.74 147.388 112.2C146.846 111.523 146.418 110.989 144.121 111.131C142.431 111.235 142.223 109.975 142.012 108.696C141.706 106.848 141.395 104.962 136.601 107.097C131.736 109.263 130.578 108.616 129.249 107.873C128.361 107.378 127.396 106.839 125.201 107.067C120.814 107.522 121.126 105.411 121.83 104.299C120.57 104.949 117.105 105.828 113.327 104.142C110.303 102.792 113.076 100.501 114.558 99.5204C111.104 101.381 102.764 98.8613 100.877 97.3287C99.8091 96.4619 102.486 94.986 104.516 94.104C100.222 94.8682 90.6907 94.3376 89.1244 92.902C87.685 91.5828 91.7659 88.6449 93.9863 87.3409C89.4517 88.0421 80.1414 89.1233 79.1766 87.838C78.3554 86.7438 82.8492 83.8099 86.2433 81.8809C79.9681 84.9684 74.2856 83.7265 72.0877 82.6159C78.8321 77.7253 90.4311 69.2971 82.8724 74.7085C75.3138 80.1199 69.2127 78.0535 67.107 76.3438C73.9236 73.7087 85.2606 68.6766 76.0755 69.6293C66.8904 70.5821 58.6269 69.1763 55.6433 68.3544C64.1794 66.8224 79.0414 63.8908 70.2003 64.4199C61.3593 64.949 58.6221 62.8962 58.3587 61.8036C116.575 55.765 140.97 65.5286 153.581 74.0964L152.303 71.8575L153.07 70.6385L141.092 52.2177C141.78 48.2172 145.021 48.4714 146.556 49.0986L154.571 61.4475C155.158 61.2323 155.813 61.3502 156.23 61.5205L159.783 66.9953L160.791 66.4205L165.815 73.6559C166.493 72.9459 167.199 72.3083 167.93 71.7491C174.567 50.2184 174.075 30.8146 172.574 21.0759C171.596 19.4748 171 17.3419 171 15C171 11.6687 172.207 8.76018 174 7.20404V3.5V3H174.03C174.238 1.30385 175.489 0 177 0C178.511 0 179.762 1.30385 179.97 3H180V3.5Z" fill="black"/>
</g>
<path d="M180 7.20404H179V7.66031L179.345 7.95934L180 7.20404ZM180.815 21.9468L180.037 21.3182L179.862 21.5347L179.824 21.8105L180.815 21.9468ZM182.877 71.6043L181.882 71.7044L181.927 72.1444L182.282 72.4077L182.877 71.6043ZM189.179 79.2928L188.298 79.7645L188.785 80.6758L189.68 80.1585L189.179 79.2928ZM189.562 79.0714L190.063 79.9372L190.063 79.9371L189.562 79.0714ZM316.086 70.832L317.009 71.2162L317.493 70.0535L316.251 69.8457L316.086 70.832ZM301.445 72.3037L301.316 73.2953L301.445 72.3037ZM318.622 77.6508L318.765 78.6406L318.848 76.6768L318.622 77.6508ZM293.732 76.9483L293.897 75.962L293.732 76.9483ZM303.822 84.5365L304.303 85.4132L306.13 84.4108L304.205 83.6128L303.822 84.5365ZM284.917 81.3733L285.502 80.562L284.917 81.3733ZM297.07 90.3312L297.377 91.283L299.246 90.6806L297.659 89.5233L297.07 90.3312ZM280.012 88.225L280.466 87.3343L279.509 89.0896L280.012 88.225ZM287.886 94.871L287.214 94.1301L287.886 94.871ZM270.008 92.9394L270.214 91.961L269.494 93.7975L270.008 92.9394ZM275.257 98.9758L275.786 99.8244L275.257 98.9758ZM256.48 98.6883L256.705 97.714L256.063 99.5975L256.48 98.6883ZM260.517 102.268L260.998 103.145V103.145L260.517 102.268ZM243.696 103.137L244.18 102.262L243.14 103.968L243.696 103.137ZM244.657 107.881L244.39 106.917L244.657 107.881ZM234.341 107.215L234.811 106.332L231.563 104.604L233.489 107.738L234.341 107.215ZM229.942 109.658L229.777 110.645L229.942 109.658ZM224.947 110.074L225.287 111.014L224.947 110.074ZM216.132 108.584L215.709 109.49L216.132 108.584ZM209.396 109.661L210.348 109.965L209.396 109.661ZM206.562 111.894L206.693 110.902L206.562 111.894ZM202.483 112.647L201.834 111.886L202.483 112.647ZM199.245 114.026L198.793 114.918L199.078 115.062L199.394 115.014L199.245 114.026ZM193.816 111.19L194.291 110.31L192.054 109.102L192.869 111.51L193.816 111.19ZM204.606 116.936L205.394 116.32L205.178 116.044L204.836 115.963L204.606 116.936ZM208.998 122.561L208.21 123.176L208.576 123.645L209.162 123.547L208.998 122.561ZM209.169 122.535L210.037 122.039L209.702 121.452L209.033 121.544L209.169 122.535ZM210.662 125.151L211.129 126.036L212.044 125.554L211.531 124.656L210.662 125.151ZM196.013 135.595L195.24 136.229L195.952 137.098L196.732 136.29L196.013 135.595ZM193.324 132.314L192.617 131.607L191.976 132.247L192.551 132.948L193.324 132.314ZM193.53 132.11L194.232 132.822L195.335 131.733L193.889 131.177L193.53 132.11ZM188.985 130.363L188.143 130.901L188.32 131.178L188.626 131.296L188.985 130.363ZM186.51 126.487L187.353 125.949L186.07 123.94L185.536 126.263L186.51 126.487ZM186.254 127.373L185.309 127.048L185.247 127.229L185.255 127.419L186.254 127.373ZM186.316 129.082L185.316 129.112L186.316 129.082ZM188.687 136.303L187.909 136.932L188.687 136.303ZM191.105 137.854L191.58 136.974L191.105 137.854ZM192.888 139.246L193.247 140.179L192.888 139.246ZM190.099 138.222L190.672 137.403L189.217 138.695L190.099 138.222ZM188.687 138.917L189.336 138.157L188.687 138.917ZM182.004 138.061L182.287 139.02H182.287L182.004 138.061ZM181.086 138.222L180.49 139.025L180.49 139.025L181.086 138.222ZM181.871 137.071L181.694 136.086L181.478 136.125L181.298 136.251L181.871 137.071ZM185.409 136.303L185.161 135.334L185.409 136.303ZM185.409 132.025L186.323 131.618L186.312 131.594L186.3 131.57L185.409 132.025ZM184.705 130.494L185.631 130.117L184.894 128.308L183.857 129.963L184.705 130.494ZM173.5 142.371L172.97 143.219L173.571 143.595L174.125 143.152L173.5 142.371ZM165.083 128.683L165.993 128.268L164.856 125.78L164.12 128.414L165.083 128.683ZM163.958 131.523L163.063 131.077L163.051 131.1L163.041 131.124L163.958 131.523ZM163.958 135.534L164.212 134.567L163.958 135.534ZM167.202 136.254L167.783 135.44L167.602 135.311L167.383 135.27L167.202 136.254ZM167.921 137.333L168.526 138.13L168.526 138.13L167.921 137.333ZM167.08 137.182L166.79 138.14H166.79L167.08 137.182ZM160.954 137.985L161.612 138.738L160.954 137.985ZM159.66 137.333L160.545 137.798L159.078 136.52L159.66 137.333ZM157.103 138.293L156.736 139.224L156.736 139.224L157.103 138.293ZM158.737 136.989L158.254 136.113H158.254L158.737 136.989ZM160.954 135.534L161.738 136.155L161.738 136.155L160.954 135.534ZM163.127 128.764L164.127 128.794L163.127 128.764ZM163.422 124.894L164.393 125.134L164.472 124.813L164.345 124.508L163.422 124.894ZM163 123.871L162.711 122.914L161.66 123.231L162.073 124.248L163 123.871ZM163.08 123.847L163.369 124.804L164.643 124.42L163.92 123.303L163.08 123.847ZM157.805 109.722L158.79 109.545L158.542 108.167L157.319 108.848L157.805 109.722ZM149.908 113.821L149.634 114.783L150.002 114.888L150.346 114.72L149.908 113.821ZM147.388 112.2L146.607 112.825L147.388 112.2ZM144.121 111.131L144.059 110.133L144.121 111.131ZM142.012 108.696L141.025 108.859L142.012 108.696ZM136.601 107.097L137.007 108.01L136.601 107.097ZM129.249 107.873L129.736 107H129.736L129.249 107.873ZM125.201 107.067L125.097 106.072L125.201 107.067ZM121.83 104.299L122.675 104.834L124.647 101.721L121.372 103.41L121.83 104.299ZM113.327 104.142L112.919 105.055H112.919L113.327 104.142ZM114.558 99.5204L115.11 100.355L114.084 98.64L114.558 99.5204ZM100.877 97.3287L101.507 96.5524L100.877 97.3287ZM104.516 94.104L104.914 95.0212L104.341 93.1195L104.516 94.104ZM89.1244 92.902L89.8001 92.1649H89.8001L89.1244 92.902ZM93.9863 87.3409L94.4927 88.2032L93.8334 86.3526L93.9863 87.3409ZM79.1766 87.838L79.9764 87.2377H79.9764L79.1766 87.838ZM86.2433 81.8809L86.7374 82.7503L85.8018 80.9836L86.2433 81.8809ZM72.0877 82.6159L71.5007 81.8063L70.1733 82.7689L71.6367 83.5084L72.0877 82.6159ZM82.8724 74.7085L83.4545 75.5216L82.8724 74.7085ZM67.107 76.3438L66.7464 75.4111L65.1376 76.033L66.4766 77.1202L67.107 76.3438ZM76.0755 69.6293L76.1786 70.624L76.0755 69.6293ZM55.6433 68.3544L55.4667 67.3701L55.3777 69.3185L55.6433 68.3544ZM70.2003 64.4199L70.1406 63.4217L70.2003 64.4199ZM58.3587 61.8036L58.2555 60.8089L57.1186 60.9268L57.3865 62.038L58.3587 61.8036ZM153.581 74.0964L153.019 74.9236L154.45 73.6007L153.581 74.0964ZM152.303 71.8575L151.457 71.3251L151.137 71.8326L151.435 72.3533L152.303 71.8575ZM153.07 70.6385L153.916 71.1709L154.257 70.6295L153.908 70.0934L153.07 70.6385ZM141.092 52.2177L140.106 52.0483L140.04 52.4344L140.254 52.7628L141.092 52.2177ZM146.556 49.0986L147.395 48.5542L147.224 48.2914L146.934 48.1729L146.556 49.0986ZM154.571 61.4475L153.732 61.9919L154.167 62.661L154.916 62.3863L154.571 61.4475ZM156.23 61.5205L157.069 60.9761L156.898 60.7133L156.608 60.5948L156.23 61.5205ZM159.783 66.9953L158.945 67.5398L159.459 68.3321L160.279 67.8638L159.783 66.9953ZM160.791 66.4205L161.612 65.8501L161.09 65.0982L160.295 65.552L160.791 66.4205ZM165.815 73.6559L164.994 74.2263L165.693 75.2328L166.539 74.3461L165.815 73.6559ZM167.93 71.7491L168.538 72.5435L168.792 72.3493L168.886 72.0437L167.93 71.7491ZM172.574 21.0759L173.562 20.9235L173.531 20.7257L173.427 20.5549L172.574 21.0759ZM174 7.20404L174.655 7.95934L175 7.66031V7.20404H174ZM174 3V2H173V3H174ZM174.03 3V4H174.915L175.023 3.12169L174.03 3ZM179.97 3L178.977 3.12169L179.085 4H179.97V3ZM180 3H181V2H180V3ZM181.22 8.52069L181.232 9.52061H181.232L181.22 8.52069ZM181 7.20404V3.5H179V7.20404H181ZM184 15C184 11.4621 182.723 8.24327 180.655 6.44874L179.345 7.95934C180.863 9.2771 182 11.8754 182 15H184ZM181.593 22.5755C183.096 20.7163 184 17.9833 184 15H182C182 17.6109 181.203 19.8759 180.037 21.3182L181.593 22.5755ZM183.872 71.5042C183.068 63.5082 182.218 53.5474 181.738 44.3738C181.255 35.1711 181.149 26.85 181.806 22.0832L179.824 21.8105C179.139 26.791 179.259 35.2924 179.74 44.4785C180.223 53.6937 181.076 63.688 181.882 71.7044L183.872 71.5042ZM190.061 78.821C188.263 75.4602 186.03 72.6966 183.473 70.8009L182.282 72.4077C184.547 74.0867 186.603 76.5968 188.298 79.7645L190.061 78.821ZM189.062 78.2057L188.679 78.427L189.68 80.1585L190.063 79.9372L189.062 78.2057ZM316.251 69.8457C272.645 62.5495 244.22 62.6778 224.995 65.6206C205.736 68.5687 195.751 74.337 189.062 78.2058L190.063 79.9371C196.647 76.1294 206.385 70.4927 225.298 67.5976C244.247 64.6971 272.446 64.5439 315.921 71.8182L316.251 69.8457ZM301.316 73.2953C306.697 73.9957 310.357 73.9043 312.767 73.4722C313.972 73.2562 314.896 72.9497 315.574 72.5918C316.224 72.2491 316.768 71.7952 317.009 71.2162L315.162 70.4477C315.181 70.4026 315.115 70.5729 314.641 70.8228C314.196 71.0575 313.483 71.312 312.414 71.5036C310.277 71.8868 306.839 71.9973 301.574 71.312L301.316 73.2953ZM318.848 76.6768C313.769 75.4973 306.831 73.8182 302.499 72.6095C301.416 72.3074 300.508 72.0379 299.837 71.8153C299.5 71.7036 299.236 71.6078 299.044 71.5292C298.817 71.4363 298.785 71.4039 298.83 71.4395C298.849 71.4544 298.906 71.5015 298.967 71.5835C299.024 71.6604 299.138 71.8414 299.147 72.1067C299.169 72.779 298.589 73.0042 298.568 73.0126C298.472 73.0499 298.418 73.0475 298.475 73.0428C298.513 73.0396 298.583 73.0369 298.693 73.0387C299.147 73.0461 299.986 73.1222 301.316 73.2953L301.574 71.312C300.242 71.1387 299.304 71.0484 298.726 71.0389C298.578 71.0365 298.436 71.039 298.308 71.0498C298.197 71.059 298.021 71.0796 297.844 71.1482C297.742 71.1879 297.124 71.4528 297.148 72.1726C297.157 72.4618 297.282 72.6686 297.359 72.7732C297.441 72.8829 297.528 72.9596 297.587 73.006C297.79 73.1675 298.068 73.291 298.285 73.3799C298.537 73.4831 298.85 73.5951 299.207 73.7136C299.923 73.9511 300.867 74.2306 301.962 74.5359C306.339 75.7573 313.313 77.4447 318.396 78.6249L318.848 76.6768ZM293.567 77.9346C304.694 79.7964 314.967 79.1873 318.765 78.6406L318.48 76.661C314.862 77.1818 304.798 77.786 293.897 75.962L293.567 77.9346ZM304.205 83.6128C300.228 81.964 295.011 79.6295 292.173 77.9537C291.46 77.5331 290.948 77.1826 290.647 76.9188C290.491 76.7815 290.449 76.7163 290.453 76.7222C290.457 76.7294 290.494 76.7929 290.51 76.9038C290.528 77.0289 290.514 77.1933 290.43 77.3552C290.276 77.6508 290.033 77.6778 290.141 77.6501C290.208 77.6328 290.37 77.609 290.674 77.61C291.27 77.6119 292.206 77.7069 293.567 77.9346L293.897 75.962C292.504 75.729 291.441 75.6125 290.68 75.61C290.304 75.6088 289.948 75.6346 289.642 75.7133C289.377 75.7816 288.907 75.9511 288.657 76.4304C288.376 76.9693 288.577 77.4765 288.727 77.7328C288.883 77.9996 289.111 78.2311 289.327 78.4212C289.772 78.8121 290.416 79.239 291.156 79.676C294.128 81.4307 299.463 83.8118 303.439 85.4603L304.205 83.6128ZM284.333 82.1847C293.175 88.5557 301.215 87.1075 304.303 85.4132L303.341 83.6599C300.936 84.9797 293.724 86.4862 285.502 80.562L284.333 82.1847ZM297.659 89.5233C293.856 86.7496 288.686 82.9739 285.533 80.6604C284.745 80.082 284.084 79.5956 283.602 79.2392C283.361 79.061 283.165 78.9161 283.022 78.8088C282.95 78.7551 282.893 78.7117 282.849 78.6788C282.828 78.6624 282.811 78.6492 282.798 78.6392C282.784 78.6284 282.778 78.624 282.778 78.6241C282.779 78.6244 282.78 78.6255 282.782 78.6274C282.785 78.6292 282.789 78.6326 282.794 78.6374C282.799 78.6416 282.809 78.6504 282.821 78.6624C282.829 78.6697 282.861 78.6996 282.897 78.7426C282.917 78.7679 282.969 78.8398 282.998 78.8873C283.047 78.9854 283.129 79.3394 283.108 79.5932C282.938 79.9735 282.393 80.3488 282.142 80.3839C282.032 80.3792 281.87 80.3494 281.816 80.3335C281.737 80.307 281.678 80.2757 281.67 80.2717C281.651 80.2614 281.636 80.2528 281.629 80.249C281.604 80.2338 281.598 80.2288 281.651 80.2652C281.73 80.3198 281.876 80.4222 282.098 80.5803C282.539 80.8947 283.266 81.4164 284.333 82.1847L285.502 80.562C284.435 79.7934 283.704 79.2689 283.258 78.951C283.036 78.793 282.879 78.6826 282.786 78.6183C282.752 78.5953 282.693 78.5543 282.644 78.5254C282.635 78.5199 282.617 78.5099 282.596 78.4986C282.586 78.4936 282.526 78.4616 282.445 78.4348C282.391 78.4187 282.229 78.3888 282.119 78.3841C281.867 78.4192 281.322 78.7946 281.152 79.1751C281.131 79.429 281.213 79.7832 281.262 79.8818C281.292 79.9296 281.343 80.0019 281.364 80.0277C281.401 80.0717 281.434 80.103 281.444 80.112C281.458 80.1257 281.47 80.1366 281.478 80.1431C281.493 80.1564 281.507 80.1676 281.515 80.1747C281.686 80.314 282.793 81.1302 284.35 82.2728C287.505 84.5883 292.678 88.3654 296.481 91.1392L297.659 89.5233ZM279.557 89.1157C287.065 92.9472 294.366 92.2531 297.377 91.283L296.763 89.3794C294.196 90.2067 287.449 90.8978 280.466 87.3343L279.557 89.1157ZM288.557 95.6118C289 95.2106 289.108 94.6679 289.008 94.1844C288.922 93.7703 288.692 93.4025 288.466 93.1103C288.003 92.5106 287.263 91.8597 286.438 91.2227C284.764 89.9304 282.471 88.4969 280.514 87.3603L279.509 89.0896C281.441 90.2121 283.646 91.5939 285.216 92.806C286.013 93.4211 286.583 93.9446 286.883 94.3333C287.04 94.5353 287.054 94.6152 287.049 94.5886C287.029 94.4927 287.051 94.2775 287.214 94.1301L288.557 95.6118ZM269.801 93.9179C272.522 94.4915 276.688 95.2777 280.349 95.7714C282.176 96.0178 283.903 96.195 285.271 96.2325C285.952 96.2512 286.575 96.2363 287.091 96.1688C287.349 96.1351 287.605 96.0852 287.838 96.009C288.062 95.9359 288.33 95.8182 288.557 95.6118L287.214 94.1301C287.277 94.0728 287.304 94.0795 287.217 94.1078C287.14 94.1331 287.015 94.1618 286.832 94.1857C286.465 94.2337 285.959 94.2506 285.325 94.2333C284.063 94.1987 282.418 94.0324 280.616 93.7894C277.02 93.3044 272.905 92.5283 270.214 91.961L269.801 93.9179ZM275.786 99.8244C276.201 99.5661 276.528 99.1841 276.651 98.6763C276.768 98.1954 276.669 97.7382 276.519 97.3705C276.23 96.6615 275.62 95.9649 274.984 95.3602C273.676 94.1158 271.819 92.8582 270.521 92.0814L269.494 93.7975C270.736 94.5408 272.451 95.7109 273.606 96.8094C274.202 97.3761 274.547 97.8298 274.667 98.1258C274.722 98.2607 274.692 98.2697 274.708 98.2031C274.731 98.1097 274.787 98.0902 274.728 98.1271L275.786 99.8244ZM256.255 99.6627C258.906 100.275 263.163 100.671 266.99 100.756C268.91 100.799 270.752 100.765 272.258 100.635C273.01 100.571 273.695 100.481 274.273 100.36C274.827 100.244 275.375 100.081 275.786 99.8244L274.728 98.1271C274.624 98.192 274.359 98.2981 273.863 98.4021C273.391 98.5009 272.792 98.5819 272.086 98.6427C270.677 98.7641 268.912 98.7989 267.035 98.7569C263.266 98.6726 259.165 98.2821 256.705 97.714L256.255 99.6627ZM260.998 103.145C261.3 102.978 261.624 102.708 261.779 102.281C261.939 101.843 261.853 101.43 261.717 101.128C261.474 100.589 260.959 100.136 260.503 99.7954C259.525 99.0645 258.088 98.3249 256.896 97.7791L256.063 99.5975C257.228 100.131 258.505 100.799 259.305 101.397C259.501 101.543 259.65 101.672 259.755 101.781C259.867 101.896 259.894 101.952 259.893 101.948C259.886 101.933 259.83 101.79 259.9 101.597C259.966 101.415 260.081 101.366 260.035 101.391L260.998 103.145ZM243.212 104.012C244.388 104.662 245.948 104.983 247.572 105.114C249.217 105.247 251.026 105.193 252.766 105.028C254.508 104.863 256.205 104.584 257.631 104.257C259.029 103.937 260.254 103.553 260.998 103.145L260.035 101.391C259.548 101.659 258.551 101.995 257.185 102.308C255.846 102.614 254.236 102.88 252.577 103.037C250.916 103.195 249.23 103.242 247.733 103.121C246.216 102.998 244.989 102.709 244.18 102.262L243.212 104.012ZM244.924 108.845C245.961 108.557 246.815 108.098 247.233 107.328C247.684 106.494 247.447 105.651 247.113 105.048C246.779 104.447 246.257 103.9 245.757 103.456C245.245 103.001 244.697 102.603 244.251 102.305L243.14 103.968C243.536 104.233 244.006 104.576 244.428 104.951C244.863 105.337 245.191 105.707 245.364 106.019C245.448 106.17 245.474 106.269 245.48 106.322C245.484 106.36 245.478 106.368 245.474 106.375C245.451 106.418 245.261 106.676 244.39 106.917L244.924 108.845ZM233.871 108.098C235.522 108.977 239.881 110.243 244.924 108.845L244.39 106.917C239.896 108.163 236.063 106.999 234.811 106.332L233.871 108.098ZM229.777 110.645C231.146 110.874 232.232 110.919 233.083 110.805C233.929 110.692 234.637 110.408 235.118 109.891C235.62 109.351 235.747 108.697 235.695 108.127C235.644 107.579 235.429 107.076 235.193 106.692L233.489 107.738C233.615 107.944 233.689 108.152 233.703 108.311C233.716 108.447 233.685 108.495 233.653 108.529C233.602 108.584 233.403 108.745 232.818 108.823C232.237 108.9 231.368 108.883 230.107 108.672L229.777 110.645ZM225.287 111.014C225.852 110.809 226.355 110.629 227.018 110.538C227.679 110.446 228.542 110.438 229.777 110.645L230.107 108.672C228.709 108.438 227.64 108.433 226.744 108.556C225.852 108.68 225.173 108.928 224.606 109.133L225.287 111.014ZM215.709 109.49C218.565 110.826 220.469 111.409 221.927 111.545C223.445 111.685 224.413 111.331 225.287 111.014L224.606 109.133C223.785 109.431 223.167 109.651 222.112 109.553C220.997 109.45 219.341 108.981 216.556 107.678L215.709 109.49ZM210.348 109.965C210.674 108.947 210.863 108.556 211.269 108.393C211.488 108.305 211.891 108.24 212.626 108.381C213.361 108.523 214.358 108.858 215.709 109.49L216.556 107.678C215.126 107.01 213.964 106.602 213.005 106.417C212.046 106.233 211.222 106.258 210.525 106.537C209.099 107.108 208.7 108.555 208.443 109.356L210.348 109.965ZM206.431 112.885C207.683 113.05 208.645 112.76 209.323 112.031C209.908 111.402 210.165 110.538 210.348 109.965L208.443 109.356C208.224 110.043 208.081 110.43 207.858 110.669C207.729 110.809 207.476 111.005 206.693 110.902L206.431 112.885ZM203.132 113.409C203.491 113.102 203.672 112.958 204.019 112.865C204.412 112.76 205.094 112.709 206.431 112.885L206.693 110.902C205.263 110.714 204.273 110.727 203.502 110.933C202.684 111.152 202.208 111.568 201.834 111.886L203.132 113.409ZM199.394 115.014C200.458 114.854 201.226 114.608 201.83 114.306C202.438 114.003 202.834 113.662 203.132 113.409L201.834 111.886C201.547 112.131 201.309 112.331 200.936 112.517C200.56 112.706 200.002 112.9 199.096 113.037L199.394 115.014ZM193.341 112.07C195.05 112.993 196.866 113.942 198.793 114.918L199.697 113.133C197.784 112.165 195.984 111.224 194.291 110.31L193.341 112.07ZM204.836 115.963C203.268 115.591 200.87 114.865 198.767 113.904C197.715 113.423 196.77 112.899 196.047 112.351C195.304 111.788 194.902 111.281 194.763 110.87L192.869 111.51C193.197 112.483 193.975 113.29 194.839 113.945C195.723 114.614 196.811 115.209 197.936 115.723C200.188 116.752 202.716 117.515 204.375 117.909L204.836 115.963ZM209.786 121.945L205.394 116.32L203.817 117.551L208.21 123.176L209.786 121.945ZM209.033 121.544C208.968 121.553 208.902 121.563 208.834 121.574L209.162 123.547C209.213 123.539 209.26 123.532 209.305 123.525L209.033 121.544ZM211.531 124.656L210.037 122.039L208.3 123.031L209.794 125.647L211.531 124.656ZM196.732 136.29C198.447 134.515 203.794 129.9 211.129 126.036L210.196 124.267C202.67 128.232 197.153 132.976 195.294 134.901L196.732 136.29ZM192.551 132.948L195.24 136.229L196.787 134.961L194.097 131.68L192.551 132.948ZM192.827 131.399C192.757 131.467 192.687 131.537 192.617 131.607L194.031 133.022C194.098 132.955 194.165 132.888 194.232 132.822L192.827 131.399ZM188.626 131.296L193.171 133.043L193.889 131.177L189.344 129.429L188.626 131.296ZM185.667 127.025L188.143 130.901L189.828 129.824L187.353 125.949L185.667 127.025ZM187.2 127.698C187.314 127.368 187.409 127.039 187.485 126.711L185.536 126.263C185.478 126.515 185.402 126.777 185.309 127.048L187.2 127.698ZM187.315 129.051C187.296 128.423 187.277 127.846 187.253 127.327L185.255 127.419C185.279 127.922 185.297 128.484 185.316 129.112L187.315 129.051ZM189.464 135.674C188.789 134.84 187.43 132.814 187.315 129.051L185.316 129.112C185.446 133.393 187.015 135.827 187.909 136.932L189.464 135.674ZM191.58 136.974C191.08 136.705 190.589 136.44 190.18 136.19C189.733 135.918 189.519 135.742 189.464 135.674L187.909 136.932C188.21 137.303 188.712 137.637 189.138 137.898C189.602 138.181 190.143 138.472 190.631 138.735L191.58 136.974ZM193.247 140.179C193.412 140.116 193.762 139.943 193.925 139.524C194.098 139.082 193.934 138.705 193.834 138.535C193.731 138.36 193.597 138.229 193.506 138.148C193.404 138.058 193.293 137.975 193.185 137.9C192.773 137.616 192.151 137.282 191.58 136.974L190.631 138.735C191.247 139.067 191.749 139.339 192.048 139.546C192.118 139.594 192.158 139.626 192.178 139.643C192.206 139.669 192.163 139.637 192.112 139.551C192.064 139.47 191.916 139.172 192.062 138.798C192.199 138.447 192.48 138.332 192.528 138.313L193.247 140.179ZM189.526 139.042C189.887 139.295 190.472 139.653 191.078 139.918C191.38 140.051 191.72 140.174 192.059 140.241C192.378 140.305 192.818 140.345 193.247 140.179L192.528 138.313C192.616 138.279 192.617 138.313 192.449 138.28C192.303 138.251 192.108 138.186 191.88 138.086C191.423 137.886 190.955 137.601 190.672 137.403L189.526 139.042ZM188.037 139.677C188.706 140.249 189.259 140.646 189.71 140.841C189.923 140.933 190.259 141.046 190.632 140.98C190.84 140.943 191.053 140.851 191.234 140.684C191.411 140.522 191.511 140.332 191.566 140.167C191.666 139.864 191.638 139.572 191.61 139.394C191.578 139.193 191.52 138.993 191.458 138.813C191.332 138.451 191.152 138.07 190.98 137.75L189.217 138.695C189.359 138.96 189.489 139.24 189.569 139.47C189.609 139.586 189.628 139.664 189.635 139.706C189.638 139.726 189.636 139.724 189.636 139.703C189.637 139.685 189.639 139.624 189.667 139.54C189.696 139.451 189.758 139.325 189.882 139.211C190.01 139.093 190.157 139.033 190.282 139.011C190.397 138.991 190.479 139.004 190.506 139.009C190.534 139.015 190.536 139.019 190.504 139.005C190.438 138.977 190.31 138.908 190.104 138.763C189.903 138.622 189.65 138.425 189.336 138.157L188.037 139.677ZM182.287 139.02C183.748 138.589 186.024 137.958 188.037 139.677L189.336 138.157C186.426 135.67 183.119 136.689 181.721 137.102L182.287 139.02ZM180.49 139.025C180.779 139.24 181.088 139.251 181.211 139.25C181.362 139.25 181.503 139.225 181.606 139.204C181.812 139.161 182.062 139.087 182.287 139.02L181.721 137.102C181.598 137.138 181.494 137.169 181.403 137.194C181.311 137.22 181.246 137.236 181.2 137.246C181.148 137.257 181.157 137.251 181.201 137.25C181.226 137.25 181.284 137.252 181.36 137.269C181.437 137.287 181.557 137.326 181.683 137.42L180.49 139.025ZM181.298 136.251C181.063 136.415 180.706 136.697 180.44 137.012C180.317 137.157 180.131 137.402 180.046 137.715C180 137.885 179.971 138.122 180.045 138.383C180.122 138.659 180.289 138.876 180.49 139.025L181.683 137.42C181.8 137.507 181.916 137.65 181.97 137.843C182.02 138.022 181.996 138.166 181.976 138.239C181.966 138.277 181.955 138.304 181.948 138.319C181.941 138.335 181.935 138.343 181.935 138.345C181.934 138.346 181.942 138.332 181.966 138.305C182.075 138.176 182.277 138.007 182.444 137.89L181.298 136.251ZM185.161 135.334C183.826 135.677 182.29 135.979 181.694 136.086L182.048 138.055C182.672 137.943 184.26 137.631 185.658 137.271L185.161 135.334ZM184.496 132.431C184.759 133.022 185.058 133.9 185.142 134.626C185.185 134.997 185.159 135.229 185.12 135.343C185.104 135.389 185.096 135.386 185.116 135.366C185.141 135.34 185.165 135.333 185.161 135.334L185.658 137.271C186.385 137.085 186.816 136.564 187.012 135.99C187.191 135.468 187.186 134.893 187.129 134.398C187.013 133.393 186.63 132.308 186.323 131.618L184.496 132.431ZM183.778 130.871C183.986 131.38 184.231 131.916 184.519 132.48L186.3 131.57C186.037 131.054 185.815 130.57 185.631 130.117L183.778 130.871ZM174.125 143.152C177.391 140.539 182.656 135.647 185.552 131.025L183.857 129.963C181.14 134.301 176.081 139.026 172.875 141.59L174.125 143.152ZM164.173 129.099C165.435 131.861 166.953 134.94 168.467 137.528C169.223 138.821 169.988 140.008 170.727 140.977C171.452 141.927 172.211 142.745 172.97 143.219L174.03 141.523C173.585 141.245 173.004 140.663 172.317 139.763C171.645 138.883 170.927 137.772 170.193 136.518C168.727 134.011 167.24 130.999 165.993 128.268L164.173 129.099ZM164.853 131.97C165.41 130.853 165.796 129.849 166.046 128.952L164.12 128.414C163.908 129.173 163.572 130.058 163.063 131.077L164.853 131.97ZM164.212 134.567C164.291 134.587 164.32 134.668 164.304 134.62C164.272 134.523 164.247 134.312 164.286 133.967C164.362 133.292 164.635 132.473 164.875 131.922L163.041 131.124C162.759 131.773 162.405 132.795 162.299 133.743C162.246 134.21 162.241 134.756 162.408 135.254C162.591 135.802 162.999 136.316 163.704 136.501L164.212 134.567ZM167.383 135.27C166.838 135.17 165.432 134.887 164.212 134.567L163.704 136.501C164.989 136.839 166.447 137.132 167.021 137.237L167.383 135.27ZM168.526 138.13C168.723 137.98 168.884 137.765 168.957 137.496C169.027 137.241 169 137.012 168.956 136.847C168.876 136.544 168.699 136.305 168.584 136.167C168.335 135.865 168.001 135.596 167.783 135.44L166.62 137.067C166.77 137.174 166.949 137.328 167.044 137.442C167.064 137.467 167.07 137.477 167.067 137.472C167.066 137.471 167.042 137.432 167.023 137.36C167.004 137.287 166.98 137.143 167.029 136.966C167.081 136.775 167.195 136.629 167.316 136.537L168.526 138.13ZM166.79 138.14C166.995 138.202 167.229 138.273 167.423 138.314C167.52 138.335 167.657 138.359 167.806 138.36C167.928 138.36 168.237 138.349 168.526 138.13L167.316 136.537C167.442 136.441 167.566 136.399 167.647 136.38C167.726 136.361 167.787 136.36 167.816 136.36C167.832 136.36 167.844 136.361 167.851 136.361C167.858 136.362 167.862 136.362 167.863 136.362C167.864 136.362 167.856 136.361 167.838 136.358C167.799 136.349 167.742 136.335 167.658 136.311C167.576 136.288 167.482 136.259 167.369 136.225L166.79 138.14ZM161.612 138.738C163.416 137.161 165.45 137.734 166.79 138.14L167.369 136.225C166.089 135.838 163.005 134.865 160.296 137.232L161.612 138.738ZM158.774 136.869C158.616 137.171 158.449 137.53 158.333 137.873C158.275 138.043 158.221 138.234 158.191 138.425C158.165 138.595 158.139 138.876 158.233 139.169C158.285 139.33 158.381 139.518 158.554 139.68C158.732 139.847 158.943 139.942 159.152 139.98C159.525 140.048 159.856 139.931 160.056 139.843C160.483 139.654 160.998 139.274 161.612 138.738L160.296 137.232C160.01 137.482 159.78 137.665 159.598 137.796C159.412 137.929 159.299 137.99 159.247 138.013C159.222 138.024 159.231 138.018 159.266 138.011C159.299 138.004 159.388 137.99 159.51 138.012C159.643 138.036 159.793 138.1 159.923 138.222C160.047 138.339 160.108 138.467 160.137 138.555C160.164 138.639 160.166 138.701 160.167 138.721C160.167 138.743 160.165 138.748 160.168 138.731C160.173 138.695 160.19 138.624 160.226 138.517C160.298 138.305 160.416 138.044 160.545 137.798L158.774 136.869ZM156.736 139.224C157.156 139.389 157.583 139.348 157.883 139.287C158.204 139.221 158.522 139.103 158.803 138.977C159.366 138.725 159.906 138.386 160.241 138.147L159.078 136.52C158.822 136.703 158.397 136.968 157.986 137.152C157.78 137.244 157.609 137.302 157.484 137.327C157.339 137.357 157.363 137.321 157.47 137.363L156.736 139.224ZM158.254 136.113C157.732 136.401 157.157 136.716 156.774 136.986C156.62 137.095 156.329 137.307 156.159 137.603C156.062 137.77 155.907 138.138 156.071 138.57C156.229 138.984 156.571 139.158 156.736 139.224L157.47 137.363C157.528 137.386 157.807 137.507 157.94 137.857C158.081 138.225 157.939 138.519 157.891 138.603C157.84 138.691 157.794 138.726 157.817 138.705C157.832 138.692 157.866 138.664 157.928 138.62C158.197 138.429 158.653 138.177 159.219 137.864L158.254 136.113ZM160.17 134.913C160.17 134.913 160.157 134.928 160.124 134.959C160.092 134.989 160.047 135.026 159.989 135.071C159.871 135.161 159.718 135.265 159.533 135.38C159.16 135.613 158.713 135.86 158.254 136.113L159.219 137.864C159.666 137.618 160.164 137.344 160.592 137.077C160.983 136.833 161.454 136.514 161.738 136.155L160.17 134.913ZM162.127 128.734C162.023 132.252 160.781 134.141 160.17 134.913L161.738 136.155C162.565 135.11 164.007 132.817 164.127 128.794L162.127 128.734ZM162.451 124.655C162.228 125.562 162.18 126.98 162.127 128.734L164.127 128.794C164.182 126.937 164.233 125.782 164.393 125.134L162.451 124.655ZM162.073 124.248C162.205 124.572 162.348 124.918 162.5 125.281L164.345 124.508C164.195 124.151 164.055 123.812 163.926 123.495L162.073 124.248ZM162.792 122.89L162.711 122.914L163.289 124.829L163.369 124.804L162.792 122.89ZM156.821 109.898C157.827 115.504 159.716 120.494 162.241 124.391L163.92 123.303C161.564 119.668 159.758 114.938 158.79 109.545L156.821 109.898ZM150.346 114.72C153.275 113.292 155.916 111.918 158.292 110.595L157.319 108.848C154.979 110.15 152.37 111.508 149.469 112.922L150.346 114.72ZM146.607 112.825C146.824 113.097 147.128 113.481 147.619 113.846C148.111 114.213 148.748 114.531 149.634 114.783L150.181 112.859C149.483 112.661 149.076 112.438 148.813 112.242C148.548 112.045 148.383 111.843 148.168 111.576L146.607 112.825ZM144.182 112.129C145.274 112.062 145.768 112.169 146.015 112.276C146.225 112.367 146.332 112.482 146.607 112.825L148.168 111.576C147.901 111.241 147.524 110.751 146.811 110.441C146.134 110.147 145.265 110.058 144.059 110.133L144.182 112.129ZM141.025 108.859C141.12 109.437 141.246 110.296 141.665 110.963C141.895 111.331 142.222 111.661 142.68 111.878C143.129 112.091 143.637 112.163 144.182 112.129L144.059 110.133C143.76 110.151 143.608 110.105 143.536 110.071C143.473 110.041 143.418 109.996 143.359 109.901C143.198 109.644 143.114 109.234 142.998 108.533L141.025 108.859ZM137.007 108.01C138.163 107.495 138.983 107.254 139.558 107.177C140.127 107.101 140.371 107.197 140.469 107.257C140.564 107.315 140.669 107.428 140.772 107.709C140.881 108.008 140.945 108.375 141.025 108.859L142.998 108.533C142.925 108.093 142.836 107.531 142.651 107.024C142.459 106.498 142.13 105.927 141.51 105.549C140.892 105.173 140.141 105.082 139.293 105.195C138.452 105.307 137.435 105.63 136.194 106.183L137.007 108.01ZM128.761 108.747C129.449 109.131 130.269 109.596 131.614 109.576C132.884 109.556 134.539 109.109 137.007 108.01L136.194 106.183C133.798 107.25 132.442 107.563 131.584 107.576C130.801 107.588 130.378 107.359 129.736 107L128.761 108.747ZM125.304 108.061C126.303 107.958 126.967 108.034 127.456 108.165C127.95 108.297 128.316 108.498 128.761 108.747L129.736 107C129.293 106.753 128.733 106.437 127.974 106.233C127.209 106.028 126.294 105.948 125.097 106.072L125.304 108.061ZM120.986 103.764C120.757 104.124 120.545 104.588 120.457 105.095C120.369 105.607 120.4 106.23 120.759 106.802C121.121 107.38 121.723 107.754 122.47 107.95C123.207 108.143 124.142 108.182 125.304 108.061L125.097 106.072C124.066 106.179 123.395 106.125 122.978 106.015C122.572 105.909 122.473 105.771 122.453 105.74C122.43 105.702 122.397 105.617 122.428 105.435C122.461 105.247 122.551 105.03 122.675 104.834L120.986 103.764ZM112.919 105.055C117.016 106.884 120.802 105.955 122.289 105.188L121.372 103.41C120.338 103.944 117.193 104.773 113.735 103.229L112.919 105.055ZM114.007 98.6863C113.258 99.1816 112.015 100.108 111.388 101.192C111.062 101.753 110.817 102.508 111.088 103.309C111.357 104.103 112.038 104.662 112.919 105.055L113.735 103.229C113.104 102.947 112.998 102.714 112.983 102.668C112.969 102.629 112.943 102.497 113.118 102.194C113.492 101.549 114.377 100.839 115.11 100.355L114.007 98.6863ZM100.246 98.105C100.846 98.5919 101.844 99.0821 102.967 99.513C104.118 99.9547 105.495 100.37 106.921 100.675C108.344 100.979 109.842 101.18 111.23 101.178C112.598 101.177 113.959 100.979 115.033 100.401L114.084 98.64C113.431 98.9919 112.454 99.177 111.228 99.1784C110.021 99.1798 108.669 99.0036 107.339 98.7191C106.012 98.4352 104.735 98.0493 103.683 97.6458C102.603 97.2313 101.851 96.8318 101.507 96.5524L100.246 98.105ZM104.117 93.1869C103.085 93.6356 101.822 94.2617 100.938 94.9198C100.518 95.2325 100.052 95.6454 99.8093 96.1478C99.6774 96.4204 99.5834 96.7772 99.6627 97.1736C99.7435 97.5773 99.9766 97.886 100.246 98.105L101.507 96.5524C101.506 96.5519 101.528 96.5694 101.555 96.6101C101.583 96.6529 101.61 96.7112 101.624 96.7813C101.638 96.8508 101.635 96.9113 101.628 96.9554C101.624 96.9765 101.619 96.9924 101.616 97.0028C101.612 97.0131 101.61 97.0184 101.61 97.0186C101.61 97.0189 101.612 97.0149 101.617 97.0068C101.622 96.9987 101.629 96.9873 101.64 96.9727C101.662 96.943 101.695 96.9044 101.741 96.8574C101.833 96.762 101.963 96.65 102.132 96.5243C102.826 96.0073 103.917 95.4544 104.914 95.0212L104.117 93.1869ZM88.4487 93.6392C88.7928 93.9546 89.2639 94.1741 89.7214 94.3384C90.2013 94.5107 90.7693 94.6575 91.3874 94.783C92.6253 95.0342 94.1442 95.2154 95.7281 95.3255C98.8798 95.5446 102.429 95.4912 104.691 95.0885L104.341 93.1195C102.31 93.481 98.9458 93.5444 95.8668 93.3304C94.3352 93.2239 92.9092 93.0511 91.7852 92.8229C91.2223 92.7087 90.7552 92.5846 90.3973 92.456C90.017 92.3195 89.8476 92.2084 89.8001 92.1649L88.4487 93.6392ZM93.4798 86.4786C92.3374 87.1496 90.6897 88.2545 89.494 89.3909C88.9085 89.9474 88.3478 90.5884 88.0515 91.2523C87.8993 91.5931 87.7885 92.0022 87.8344 92.4416C87.883 92.9073 88.099 93.3187 88.4487 93.6392L89.8001 92.1649C89.79 92.1556 89.8186 92.1866 89.8236 92.234C89.8258 92.2551 89.815 92.2081 89.8778 92.0676C90.0111 91.7688 90.3396 91.3464 90.8718 90.8406C91.9118 89.8522 93.4148 88.8362 94.4927 88.2032L93.4798 86.4786ZM78.3768 88.4382C78.7163 88.8904 79.2655 89.0821 79.6534 89.1825C80.0968 89.2972 80.6283 89.3631 81.1967 89.3992C82.3397 89.4716 83.7854 89.4319 85.3081 89.3323C88.362 89.1324 91.8543 88.6825 94.1391 88.3291L93.8334 86.3526C91.5837 86.7005 88.1535 87.1418 85.1775 87.3365C83.6851 87.4342 82.339 87.4676 81.3232 87.4032C80.8123 87.3708 80.4227 87.3157 80.1546 87.2463C79.831 87.1625 79.8782 87.1068 79.9764 87.2377L78.3768 88.4382ZM85.7492 81.0115C84.038 81.984 82.0192 83.2264 80.5196 84.3798C79.7793 84.9492 79.1074 85.5403 78.6692 86.101C78.4529 86.3777 78.2407 86.7126 78.1398 87.0865C78.0301 87.4931 78.0452 87.9964 78.3768 88.4382L79.9764 87.2377C80.1027 87.4059 80.0787 87.5782 80.0708 87.6074C80.0694 87.6124 80.0751 87.5898 80.1048 87.5371C80.1337 87.4856 80.1786 87.4174 80.2449 87.3327C80.5244 86.9752 81.0341 86.5072 81.7389 85.9651C83.1293 84.8958 85.0545 83.7068 86.7374 82.7503L85.7492 81.0115ZM71.6367 83.5084C74.0874 84.7468 80.1013 86.0173 86.6847 82.7782L85.8018 80.9836C79.8348 83.9195 74.4837 82.7062 72.5387 81.7233L71.6367 83.5084ZM83.4545 75.5216C84.3992 74.8453 85.0426 74.3866 85.4331 74.1106C85.6297 73.9716 85.7572 73.8824 85.826 73.8355C85.8748 73.8021 85.8636 73.8111 85.8335 73.8284C85.8262 73.8326 85.8097 73.8421 85.7876 73.8532C85.7802 73.8569 85.7125 73.8922 85.6201 73.9193C85.557 73.9355 85.3614 73.9592 85.2297 73.9534C84.9445 73.8781 84.4502 73.4163 84.343 73.0398C84.3485 72.8277 84.4355 72.5328 84.4805 72.4482C84.5076 72.4052 84.5557 72.3391 84.5751 72.3154C84.61 72.2741 84.6405 72.2452 84.6486 72.2374C84.6613 72.2254 84.6714 72.2165 84.6764 72.2121C84.6866 72.2032 84.6935 72.1977 84.6937 72.1975C84.695 72.1964 84.6911 72.1996 84.679 72.2089C84.668 72.2175 84.6531 72.2288 84.6341 72.2432C84.596 72.2721 84.5452 72.3102 84.4816 72.3575C84.3546 72.4521 84.1815 72.58 83.9676 72.7373C83.54 73.0518 82.9534 73.4809 82.2542 73.9912C79.4576 76.0322 74.8728 79.3611 71.5007 81.8063L72.6748 83.4254C76.047 80.9801 80.6339 77.6497 83.4332 75.6067C84.8117 74.6007 85.7988 73.8766 85.9554 73.7493C85.9637 73.7425 85.9771 73.7315 85.9922 73.7184C85.9996 73.7118 86.0118 73.7011 86.026 73.6875C86.0358 73.6782 86.0675 73.6481 86.1032 73.6058C86.123 73.5816 86.1714 73.5151 86.1987 73.4718C86.2439 73.3869 86.331 73.0918 86.3365 72.8794C86.2293 72.5028 85.7348 72.0409 85.4495 71.9655C85.3175 71.9597 85.1216 71.9835 85.0581 71.9998C84.9647 72.0272 84.8958 72.063 84.8867 72.0676C84.863 72.0796 84.8442 72.0902 84.8344 72.0959C84.784 72.1249 84.7252 72.1653 84.6979 72.184C84.6143 72.2411 84.4749 72.3387 84.2785 72.4775C83.8829 72.7572 83.2353 73.2189 82.2903 73.8954L83.4545 75.5216ZM66.4766 77.1202C68.9458 79.1249 75.5441 81.1849 83.4545 75.5216L82.2903 73.8954C75.0834 79.055 69.4796 76.9821 67.7373 75.5675L66.4766 77.1202ZM76.1786 70.624C77.3077 70.5069 78.0576 70.4896 78.5144 70.532C78.6244 70.5422 78.7072 70.555 78.7672 70.5676C78.7968 70.5739 78.8187 70.5796 78.8339 70.5841C78.8492 70.5887 78.8556 70.5914 78.8549 70.5911C78.8544 70.5909 78.8439 70.5865 78.8265 70.576C78.809 70.5655 78.7819 70.5473 78.7503 70.5188C78.6837 70.4588 78.6028 70.3579 78.556 70.2131C78.5093 70.0684 78.5156 69.9383 78.535 69.8484C78.5529 69.7654 78.5808 69.7194 78.5836 69.7147C78.5847 69.7129 78.5458 69.7712 78.4118 69.8889C78.1507 70.1181 77.7087 70.4183 77.0911 70.7755C74.627 72.201 70.1538 74.0939 66.7464 75.4111L67.4675 77.2766C70.8768 75.9586 75.4803 74.0179 78.0926 72.5067C78.7441 72.1299 79.3211 71.7519 79.7313 71.3918C79.9329 71.2148 80.1426 71.0007 80.2932 70.7527C80.4383 70.5137 80.6177 70.0893 80.4593 69.5988C80.3008 69.1075 79.9046 68.8629 79.6305 68.7476C79.3471 68.6284 79.0219 68.5704 78.6992 68.5405C78.0446 68.4798 77.1395 68.5136 75.9723 68.6347L76.1786 70.624ZM55.3777 69.3185C58.4673 70.1696 66.8561 71.591 76.1786 70.624L75.9723 68.6347C66.9246 69.5732 58.7866 68.1831 55.9089 67.3903L55.3777 69.3185ZM70.2601 65.4181C71.3642 65.352 72.0384 65.3445 72.3867 65.3713C72.4699 65.3777 72.5128 65.3845 72.5268 65.3874C72.5603 65.3941 72.4767 65.3838 72.3614 65.3154C72.2483 65.2483 71.8532 64.9533 71.9213 64.3971C71.9477 64.1812 72.0403 64.0313 72.0974 63.9552C72.1558 63.8775 72.2114 63.8309 72.2353 63.812C72.2973 63.7629 72.2948 63.7825 72.1048 63.855C71.9493 63.9142 71.7312 63.9859 71.4488 64.0688C70.886 64.2339 70.1234 64.4274 69.211 64.6404C65.5605 65.4924 59.7327 66.6045 55.4667 67.3701L55.82 69.3386C60.09 68.5723 65.9612 67.4526 69.6655 66.5881C70.5918 66.3719 71.3963 66.1685 72.0119 65.9879C72.3186 65.8979 72.5925 65.8095 72.8172 65.7238C73.0072 65.6514 73.273 65.5413 73.4767 65.38C73.545 65.326 73.8523 65.0832 73.9065 64.6401C73.9803 64.0369 73.5575 63.6995 73.3815 63.5951C73.2031 63.4893 73.0213 63.4466 72.9193 63.4262C72.7979 63.4019 72.6682 63.387 72.5399 63.3771C72.042 63.3389 71.2466 63.3555 70.1406 63.4217L70.2601 65.4181ZM57.3865 62.038C57.5239 62.6078 57.9262 63.1172 58.4606 63.5353C59.0088 63.9642 59.766 64.3546 60.7579 64.6722C62.7394 65.3069 65.7688 65.6869 70.2601 65.4181L70.1406 63.4217C65.7908 63.682 63.0311 63.3002 61.3679 62.7675C60.5374 62.5015 60.0084 62.2069 59.693 61.9601C59.3638 61.7026 59.3251 61.5456 59.3308 61.5692L57.3865 62.038ZM154.143 73.2692C141.268 64.5221 116.608 54.7562 58.2555 60.8089L58.4619 62.7983C116.543 56.7737 140.672 66.535 153.019 74.9236L154.143 73.2692ZM151.435 72.3533L152.713 74.5922L154.45 73.6007L153.171 71.3618L151.435 72.3533ZM152.223 70.1061L151.457 71.3251L153.15 72.3899L153.916 71.1709L152.223 70.1061ZM140.254 52.7628L152.231 71.1836L153.908 70.0934L141.93 51.6726L140.254 52.7628ZM146.934 48.1729C146.029 47.8031 144.58 47.5167 143.194 47.9729C141.704 48.4632 140.503 49.7389 140.106 52.0483L142.077 52.3871C142.368 50.696 143.132 50.0985 143.819 49.8727C144.609 49.6126 145.548 49.767 146.178 50.0243L146.934 48.1729ZM155.41 60.903L147.395 48.5542L145.717 49.6431L153.732 61.9919L155.41 60.903ZM156.608 60.5948C156.053 60.3678 155.126 60.1786 154.227 60.5086L154.916 62.3863C155.042 62.3398 155.201 62.3211 155.382 62.336C155.563 62.351 155.732 62.3971 155.852 62.4462L156.608 60.5948ZM160.622 66.4509L157.069 60.9761L155.391 62.0649L158.945 67.5398L160.622 66.4509ZM160.295 65.552L159.288 66.1269L160.279 67.8638L161.286 67.289L160.295 65.552ZM166.637 73.0854L161.612 65.8501L159.969 66.9909L164.994 74.2263L166.637 73.0854ZM167.323 70.9547C166.547 71.5479 165.802 72.221 165.092 72.9656L166.539 74.3461C167.183 73.6709 167.851 73.0686 168.538 72.5435L167.323 70.9547ZM171.585 21.2282C173.066 30.8368 173.562 50.086 166.975 71.4545L168.886 72.0437C175.573 50.3508 175.083 30.7925 173.562 20.9235L171.585 21.2282ZM170 15C170 17.5035 170.636 19.821 171.72 21.5969L173.427 20.5549C172.557 19.1286 172 17.1802 172 15H170ZM173.345 6.44874C171.276 8.24327 170 11.4621 170 15H172C172 11.8754 173.137 9.2771 174.655 7.95934L173.345 6.44874ZM173 3.5V7.20404H175V3.5H173ZM173 3V3.5H175V3H173ZM174.03 2H174V4H174.03V2ZM177 -1C174.862 -1 173.291 0.810786 173.038 2.87831L175.023 3.12169C175.185 1.79692 176.115 1 177 1V-1ZM180.962 2.87831C180.709 0.810786 179.137 -1 177 -1V1C177.885 1 178.815 1.79692 178.977 3.12169L180.962 2.87831ZM180 2H179.97V4H180V2ZM181 3.5V3H179V3.5H181ZM182.073 7.60557C182.166 7.55917 182.245 7.53847 182.268 7.53243C182.302 7.52355 182.33 7.51832 182.345 7.51563C182.375 7.51021 182.399 7.50749 182.409 7.50647C182.429 7.50419 182.445 7.50323 182.447 7.50307C182.456 7.50254 182.458 7.50252 182.451 7.50279C182.438 7.50325 182.416 7.50389 182.38 7.50467C182.312 7.50618 182.212 7.50784 182.091 7.50961C181.848 7.51314 181.527 7.51696 181.208 7.52076L181.232 9.52061C181.55 9.51683 181.874 9.51298 182.12 9.5094C182.242 9.50762 182.348 9.50587 182.424 9.50418C182.462 9.50336 182.497 9.50246 182.524 9.50144C182.537 9.50097 182.556 9.50022 182.575 9.499C182.583 9.49848 182.603 9.49717 182.627 9.49455C182.637 9.49336 182.663 9.49047 182.694 9.48488C182.71 9.4821 182.738 9.47678 182.772 9.46782C182.796 9.46169 182.875 9.44092 182.968 9.39443L182.073 7.60557ZM181.208 7.52076C181.189 7.52097 181.171 7.52119 181.153 7.52141L181.177 9.52127C181.195 9.52105 181.213 9.52083 181.232 9.52061L181.208 7.52076Z" fill="#CDCDCD"/>
<rect x="174" y="3" width="6" height="6" fill="#FF6B0A"/>
<ellipse cx="177" cy="3.5" rx="3" ry="3.5" fill="#FF6B0A"/>
<ellipse cx="177" cy="15" rx="6" ry="9" fill="white"/>
<path d="M185.409 132.025C182.983 127.272 183.829 124.804 184.555 124.164C186.089 123.451 186.194 125.06 186.316 129.082C186.438 133.104 187.902 135.334 188.687 136.303C189.471 137.272 193.742 138.917 192.888 139.246C192.204 139.509 190.744 138.673 190.099 138.222C190.726 139.392 191.322 141.169 188.687 138.917C185.392 136.102 181.505 138.533 181.086 138.222C180.752 137.974 181.47 137.351 181.871 137.071C182.481 136.961 184.043 136.654 185.409 136.303C186.776 135.952 185.979 133.305 185.409 132.025Z" fill="#FF6B0A"/>
<path d="M163.958 131.523C166.182 127.067 165.407 124.754 164.741 124.154C163.335 123.485 163.239 124.993 163.127 128.764C163.015 132.535 161.673 134.626 160.954 135.534C160.235 136.442 156.32 137.985 157.103 138.293C157.729 138.54 159.068 137.756 159.66 137.333C159.084 138.43 158.538 140.096 160.954 137.985C163.974 135.345 167.537 137.625 167.921 137.333C168.228 137.1 167.569 136.517 167.202 136.254C166.642 136.151 165.211 135.863 163.958 135.534C162.705 135.205 163.436 132.723 163.958 131.523Z" fill="#FF6B0A"/>
<path d="M58.3587 61.8036C153.5 51.9349 158.309 84.271 168.98 84.6189C177.637 87.0344 185.942 96.2567 149.908 113.821C146.338 112.806 148.251 110.876 144.121 111.131C139.99 111.386 144.713 103.484 136.601 107.097C128.488 110.709 130.684 106.498 125.201 107.067C120.814 107.522 121.126 105.411 121.83 104.299C120.57 104.949 117.105 105.828 113.327 104.142C110.303 102.792 113.076 100.501 114.559 99.5204C111.104 101.381 102.764 98.8613 100.877 97.3287C99.8092 96.4619 102.486 94.986 104.516 94.104C100.222 94.8682 90.6907 94.3376 89.1244 92.902C87.6851 91.5828 91.766 88.6449 93.9863 87.3409C89.4517 88.0421 80.1414 89.1233 79.1767 87.838C78.3555 86.7438 82.8492 83.8099 86.2433 81.8809C79.9681 84.9684 74.2856 83.7265 72.0878 82.6159C78.8321 77.7253 90.4311 69.2971 82.8725 74.7085C75.3138 80.1199 69.2127 78.0535 67.107 76.3438C73.9236 73.7087 85.2606 68.6766 76.0755 69.6293C66.8904 70.5821 58.627 69.1763 55.6434 68.3544C64.1795 66.8224 79.0414 63.8908 70.2004 64.4199C61.3593 64.949 58.6222 62.8962 58.3587 61.8036Z" fill="white"/>
<path d="M316.086 70.832C202 51.7427 192.463 83.6386 179.5 82.9534C168.739 84.5326 157.623 92.9579 199.245 114.026C203.684 113.355 201.589 111.238 206.562 111.894C211.535 112.549 206.722 104.183 216.132 108.584C225.542 112.985 223.366 108.558 229.942 109.658C235.202 110.539 235.066 108.396 234.341 107.215C235.793 107.988 239.888 109.203 244.657 107.881C248.473 106.823 245.378 104.261 243.696 103.137C247.666 105.333 258.055 103.619 260.517 102.268C261.909 101.504 258.836 99.7675 256.48 98.6883C261.591 99.8689 273.196 100.261 275.257 98.9758C277.152 97.7949 272.547 94.4595 270.008 92.9394C275.419 94.0804 286.57 96.0639 287.886 94.871C289.006 93.8554 283.9 90.4841 280.012 88.225C287.257 91.9225 294.281 91.2299 297.07 90.3312C289.464 84.7837 276.385 75.2257 284.917 81.3733C293.45 87.5209 301.076 86.0436 303.822 84.5365C295.869 81.2392 282.718 75.1054 293.732 76.9483C304.746 78.7912 314.914 78.1845 318.622 77.6508C308.46 75.2911 290.799 70.918 301.445 72.3037C312.091 73.6893 315.641 71.8999 316.086 70.832Z" fill="white"/>
<ellipse cx="175.5" cy="100.5" rx="18.5" ry="31.5" fill="white"/>
<circle cx="177" cy="11" r="3" fill="#373500"/>
<path d="M173.5 142.371C170.3 140.371 165.167 129.205 163 123.871C170.167 121.705 184.9 118.671 186.5 123.871C188.1 129.071 178.5 138.371 173.5 142.371Z" fill="white"/>
<path d="M166 77.5C175.6 51.1 174 26.8334 172 18C176.833 16.1667 185.6 13.6 182 18C178.4 22.4 181.5 59.5 183.5 77.5C173.667 88.5 156.4 103.9 166 77.5Z" fill="white"/>
<path d="M188.985 130.363L193.535 132.112L200.578 126.969L179.438 97.5495L156.494 79.485L188.985 130.363Z" fill="#808080"/>
<rect x="166.869" y="105.132" width="7.65626" height="4.32437" transform="rotate(-119.719 166.869 105.132)" fill="#C4C4C4"/>
<path d="M173.715 84.6376L172.316 87.1063L173.318 88.862L174.434 85.8971L173.715 84.6376Z" fill="#A7A7A7"/>
<rect x="162.089" y="96.7591" width="7.65626" height="4.32437" transform="rotate(-119.719 162.089 96.7591)" fill="#C4C4C4"/>
<path d="M196.013 135.595L193.324 132.314C200.384 125.264 206.829 122.857 209.169 122.535L210.663 125.151C203.232 129.066 197.8 133.745 196.013 135.595Z" fill="#A7A7A7"/>
<path d="M167.793 112.829L151.852 87.8693C152.743 85.369 155.219 85.1171 156.346 85.3038L171.98 110.439C171.527 112.706 169 112.977 167.793 112.829Z" fill="#A7A7A7"/>
<path d="M153.46 71.238L141.092 52.2177C141.78 48.2172 145.021 48.4714 146.556 49.0986L159.255 68.6643L153.46 71.238Z" fill="#9B9B9B"/>
<path d="M159.859 73.1576L153.358 63.1598C153.72 61.0571 155.423 61.1908 156.23 61.5205L162.905 71.805L159.859 73.1576Z" fill="#A7A7A7"/>
<path d="M151.074 77.4976L152.636 75.0142L156.273 81.3864L153.639 81.9919L151.074 77.4976Z" fill="#C4C4C4"/>
<path d="M152.303 71.8575L153.865 69.3742L157.502 75.7463L154.869 76.3519L152.303 71.8575Z" fill="#C4C4C4"/>
<path fill-rule="evenodd" clip-rule="evenodd" d="M173.548 89.0034L177.61 95.0624C177.813 93.9531 178.479 91.9091 179.515 92.6078C180.809 93.4811 189.246 91.8889 190.313 90.7902C191.38 89.6916 186.753 77.7618 184.831 79.8999C182.914 82.0323 165.535 76.994 165.235 76.6012L169.002 82.2206C173.793 83.1044 181.193 84.1901 183.231 83.3554C186.312 82.0936 186.576 86.6405 184.908 87.2938C183.51 87.8417 176.386 88.9018 173.548 89.0034ZM159.39 67.22L160.791 66.4205L166.636 74.838L164.82 75.8748L159.39 67.22Z" fill="#A7A7A7"/>
<path d="M209.081 122.667L200.974 127.948L179.543 97.7341L175.834 99.8516L181.053 107.994L176.954 110.966L176.231 111.379L173.574 109.835L152.062 75.2602L153.093 74.6715C153.396 74.4987 154.107 73.9949 154.529 73.362C154.952 72.7291 153.711 70.2372 153.038 69.0703L159.689 66.886L169.603 82.0012C173.438 87.9682 181.539 99.9785 183.264 100.284C185.42 100.665 190.481 104.061 193.621 106.452C196.133 108.365 194.781 110.354 193.791 111.11C194.625 113.916 201.348 116.163 204.606 116.936L209.081 122.667Z" fill="#9B9B9B"/>
<circle cx="177" cy="14" r="4" fill="#4B4800"/>
<path d="M179.171 10.6406C178.537 10.2309 177.801 10.0089 177.046 10.0003C176.291 9.99159 175.55 10.1966 174.907 10.5916L175.302 11.235C175.823 10.9145 176.425 10.7482 177.037 10.7553C177.65 10.7623 178.247 10.9424 178.761 11.2748L179.171 10.6406Z" fill="#787300"/>
<path d="M176.484 11.7714C176.503 11.7589 176.519 11.7494 176.533 11.738C176.65 11.6464 176.719 11.542 176.742 11.3965C176.751 11.3349 176.754 11.2715 176.759 11.21C176.764 11.1556 176.768 11.1021 176.774 11.0477C176.776 11.0335 176.774 11.0276 176.757 11.026C176.723 11.0239 176.693 11.0086 176.678 10.9758C176.664 10.947 176.668 10.9187 176.686 10.8941C176.704 10.8685 176.731 10.8577 176.761 10.8559C176.776 10.8555 176.786 10.8613 176.795 10.8751C176.861 10.98 176.902 11.0936 176.92 11.2158C176.935 11.317 176.93 11.4188 176.928 11.5194C176.928 11.5768 176.929 11.635 176.927 11.6925C176.926 11.7287 176.927 11.7628 176.937 11.7978C176.948 11.8327 176.965 11.8645 176.991 11.8929C177.016 11.8651 177.033 11.8325 177.039 11.7971C177.044 11.7638 177.045 11.7286 177.045 11.6954C177.045 11.6592 177.04 11.6231 177.038 11.5879C177.033 11.4945 177.026 11.4012 177.024 11.3077C177.021 11.1519 177.056 11.0051 177.133 10.8693C177.142 10.8509 177.156 10.8455 177.176 10.847C177.224 10.8498 177.262 10.886 177.263 10.9313C177.264 10.9735 177.228 11.0126 177.18 11.0159C177.163 11.0174 177.162 11.0234 177.165 11.0374C177.176 11.1106 177.186 11.1847 177.196 11.2579C177.208 11.3411 177.215 11.4244 177.252 11.5019C177.3 11.6042 177.368 11.6718 177.466 11.7306C177.473 11.7344 177.48 11.7383 177.491 11.744C177.49 11.735 177.49 11.729 177.49 11.7229C177.48 11.3339 177.47 10.961 177.46 10.572C177.459 10.5499 177.459 10.5499 177.438 10.5505C177.358 10.5526 177.277 10.5547 177.197 10.5568C177.183 10.5572 177.177 10.5533 177.174 10.5393C177.148 10.4334 177.091 10.3463 177.001 10.2823C176.982 10.2687 176.966 10.251 176.948 10.2354C176.904 10.2889 176.841 10.3267 176.804 10.3891C176.774 10.4401 176.75 10.4941 176.741 10.5527C176.738 10.5658 176.732 10.57 176.72 10.5703C176.638 10.5725 176.557 10.5746 176.475 10.5767C176.461 10.5771 176.455 10.5803 176.456 10.5963C176.466 10.9874 176.476 11.3633 176.486 11.7543C176.484 11.7564 176.484 11.7604 176.484 11.7714ZM176.569 11.5902C176.567 11.5892 176.564 11.5893 176.562 11.5884C176.561 11.5813 176.561 11.5743 176.561 11.5673C176.556 11.3793 176.552 11.2064 176.547 11.0184C176.546 10.9873 176.546 10.9873 176.578 10.9864C176.59 10.9861 176.596 10.989 176.6 11.0009C176.613 11.0378 176.638 11.0653 176.672 11.0825C176.686 11.0902 176.688 11.0992 176.687 11.1133C176.679 11.1829 176.671 11.2536 176.667 11.3231C176.662 11.3956 176.647 11.4503 176.612 11.5146C176.599 11.5411 176.583 11.5647 176.569 11.5902ZM177.402 11.5653C177.4 11.5654 177.399 11.5664 177.397 11.5665C177.391 11.5586 177.384 11.5507 177.379 11.5428C177.338 11.4835 177.305 11.4371 177.293 11.366C177.278 11.2759 177.266 11.1857 177.252 11.0955C177.25 11.0835 177.253 11.0754 177.264 11.068C177.297 11.048 177.321 11.0203 177.333 10.9827C177.339 10.9655 177.35 10.9612 177.376 10.9655C177.392 10.9681 177.387 10.9803 177.387 10.9894C177.392 11.1803 177.397 11.3562 177.402 11.5482C177.403 11.5542 177.403 11.5603 177.402 11.5653ZM176.745 10.7738C176.74 10.775 176.734 10.7761 176.727 10.7783C176.663 10.7941 176.614 10.8265 176.596 10.8924C176.593 10.9015 176.589 10.9057 176.58 10.9049C176.573 10.9051 176.566 10.9053 176.559 10.9055C176.549 10.9057 176.545 10.9018 176.544 10.8918C176.542 10.8164 176.54 10.74 176.539 10.6646C176.539 10.6605 176.547 10.6513 176.551 10.6512C176.606 10.6487 176.661 10.6473 176.716 10.6469C176.72 10.6467 176.728 10.6536 176.729 10.6576C176.735 10.6957 176.74 10.7337 176.745 10.7738ZM177.178 10.7625C177.181 10.7222 177.185 10.6839 177.188 10.6446C177.188 10.6335 177.196 10.6333 177.205 10.633C177.256 10.6317 177.307 10.6314 177.358 10.629C177.374 10.6286 177.38 10.6345 177.379 10.6496C177.38 10.717 177.383 10.7843 177.384 10.8526C177.385 10.8838 177.385 10.8838 177.354 10.8846C177.345 10.8849 177.337 10.8851 177.333 10.8741C177.314 10.8153 177.269 10.7842 177.212 10.7686C177.2 10.7659 177.188 10.7652 177.178 10.7625ZM176.971 11.0516C176.94 10.9749 176.91 10.9003 176.865 10.8311C176.895 10.8091 176.924 10.7883 176.954 10.7684C176.958 10.7652 176.968 10.767 176.973 10.7699C177 10.7853 177.025 10.8027 177.051 10.8181C177.06 10.8229 177.062 10.8279 177.057 10.8371C177.021 10.8994 176.998 10.9664 176.977 11.0353C176.974 11.0404 176.972 11.0465 176.971 11.0516ZM176.827 10.5655C176.822 10.5133 176.875 10.4073 176.908 10.3934C176.909 10.3944 176.91 10.3953 176.91 10.3953C176.911 10.4476 176.914 10.4999 176.914 10.5511C176.914 10.5552 176.907 10.5614 176.903 10.5625C176.878 10.5652 176.853 10.5648 176.827 10.5655ZM176.993 10.3891C177.037 10.4131 177.09 10.5194 177.084 10.5598C177.062 10.5603 177.038 10.561 177.015 10.5616C177.002 10.5619 176.998 10.557 176.998 10.5449C176.997 10.5027 176.996 10.4605 176.994 10.4183C176.993 10.4092 176.993 10.4002 176.993 10.3891ZM176.865 10.644C176.878 10.6436 176.892 10.6422 176.905 10.6439C176.909 10.6438 176.918 10.6516 176.917 10.6547C176.912 10.6991 176.884 10.738 176.842 10.7492C176.833 10.7514 176.828 10.7495 176.826 10.7405C176.821 10.7135 176.817 10.6864 176.812 10.6584C176.811 10.6484 176.817 10.6442 176.826 10.644C176.838 10.6447 176.852 10.6443 176.865 10.644ZM177.051 10.6391C177.063 10.6388 177.074 10.6385 177.086 10.6382C177.098 10.6368 177.106 10.6417 177.104 10.6548C177.101 10.68 177.099 10.7052 177.096 10.7304C177.094 10.7426 177.088 10.7457 177.076 10.742C177.037 10.732 177.002 10.6917 177 10.6525C176.999 10.6485 177.006 10.6413 177.01 10.6401C177.025 10.6388 177.038 10.6394 177.051 10.6391Z" fill="#FFD500"/>
<path d="M173.938 8.53014C172.979 8.97992 172.5 8.53143 172.5 10C172.5 11.2 173.459 9.5201 173.938 8.53014Z" fill="black"/>
<path d="M180 8.53977C181.021 9 181.521 8.53143 181.521 10C181.521 11.2 180.521 9.5 180 8.53977Z" fill="black"/>
</g>
<defs>
<filter id="filter0_d_112130_1727" x="39.6433" y="0" width="294.979" height="188.371" filterUnits="userSpaceOnUse" color-interpolation-filters="sRGB">
<feFlood flood-opacity="0" result="BackgroundImageFix"/>
<feColorMatrix in="SourceAlpha" type="matrix" values="0 0 0 0 0 0 0 0 0 0 0 0 0 0 0 0 0 0 127 0" result="hardAlpha"/>
<feOffset dy="30"/>
<feGaussianBlur stdDeviation="8"/>
<feComposite in2="hardAlpha" operator="out"/>
<feColorMatrix type="matrix" values="0 0 0 0 0 0 0 0 0 0 0 0 0 0 0 0 0 0 0.16 0"/>
<feBlend mode="normal" in2="BackgroundImageFix" result="effect1_dropShadow_112130_1727"/>
<feBlend mode="normal" in="SourceGraphic" in2="effect1_dropShadow_112130_1727" result="shape"/>
</filter>
<clipPath id="clip0_112130_1727">
<rect width="375" height="176" fill="white"/>
</clipPath>
</defs>
</svg>
