<svg width="308" height="288" viewBox="0 0 308 288" fill="none" xmlns="http://www.w3.org/2000/svg">
<path d="M146.089 96.668C131.414 103.747 134.71 120.505 138.193 128C127.114 128 116.488 109.046 112.56 99.5691C101.181 100.584 75.4595 100.12 63.6028 90.1404C48.782 77.6657 49.2679 40.6764 66.5184 14.7115C83.7688 -11.2535 225.174 10.5048 248.377 11.0851C271.58 11.6653 286.523 40.0962 272.674 81.292C258.825 122.488 164.433 87.8196 146.089 96.668Z" fill="white" stroke="#B1CCFF" stroke-width="2"/>
<path d="M177.528 245.139L184.158 247.688L194.421 240.194L163.616 197.325L130.183 171.002L177.528 245.139Z" fill="#808080"/>
<rect x="145.301" y="208.375" width="11.1564" height="6.3013" transform="rotate(-119.719 145.301 208.375)" fill="#C4C4C4"/>
<path d="M155.277 178.511L153.238 182.108L154.699 184.666L156.325 180.346L155.277 178.511Z" fill="#A7A7A7"/>
<rect x="138.337" y="196.173" width="11.1564" height="6.3013" transform="rotate(-119.719 138.337 196.173)" fill="#C4C4C4"/>
<path d="M187.769 252.764L183.85 247.983C194.138 237.709 203.529 234.202 206.939 233.733L209.115 237.546C198.288 243.25 190.373 250.068 187.769 252.764Z" fill="#A7A7A7"/>
<path d="M146.648 219.589L123.419 183.22C124.717 179.576 128.326 179.209 129.968 179.481L152.748 216.107C152.088 219.41 148.407 219.805 146.648 219.589Z" fill="#A7A7A7"/>
<path d="M125.761 158.985L107.74 131.27C108.742 125.44 113.465 125.811 115.702 126.725L134.207 155.235L125.761 158.985Z" fill="#9B9B9B"/>
<path d="M135.087 161.782L125.614 147.214C126.14 144.15 128.623 144.345 129.798 144.825L139.525 159.811L135.087 161.782Z" fill="#A7A7A7"/>
<path d="M122.285 168.106L124.561 164.488L129.861 173.773L126.023 174.655L122.285 168.106Z" fill="#C4C4C4"/>
<path d="M124.076 159.888L126.352 156.269L131.652 165.555L127.815 166.437L124.076 159.888Z" fill="#C4C4C4"/>
<path fill-rule="evenodd" clip-rule="evenodd" d="M155.034 184.872L160.952 193.701C161.249 192.085 162.219 189.106 163.728 190.124C165.614 191.397 177.909 189.077 179.463 187.476C181.017 185.875 174.276 168.491 171.475 171.607C168.681 174.714 143.357 167.373 142.92 166.8L142.917 166.796C142.918 166.797 142.919 166.799 142.92 166.8L148.409 174.988C155.39 176.276 166.173 177.858 169.143 176.642C173.632 174.804 174.018 181.429 171.587 182.381C169.55 183.179 159.168 184.724 155.034 184.872ZM134.403 153.13L136.444 151.965L144.962 164.231L142.316 165.742L134.403 153.13Z" fill="#A7A7A7"/>
<path d="M206.81 233.925L194.997 241.62L163.769 197.594L158.364 200.68L165.97 212.545L159.997 216.876L158.943 217.477L155.071 215.227L123.725 164.846L125.227 163.988C125.669 163.737 126.705 163.002 127.32 162.08C127.935 161.158 126.128 157.527 125.148 155.827L134.839 152.644L149.285 174.669C154.873 183.364 166.677 200.865 169.191 201.309C172.333 201.865 179.708 206.814 184.283 210.298C187.944 213.085 185.973 215.984 184.53 217.085C185.746 221.173 195.543 224.448 200.289 225.574L206.81 233.925Z" fill="#9B9B9B"/>
<path d="M130.967 174.75C140.489 174.75 146.653 178.256 148.544 180.009C156.739 197.528 127.777 210.394 125.404 213.799C123.031 217.205 118.358 212.285 115.948 212.285C113.538 212.285 113.389 210.772 109.125 209.258C104.86 207.745 107.271 201.918 103.192 201.35C99.1125 200.783 100.967 197.566 96.7392 196.242C92.5118 194.918 96.5538 191.172 91.7331 190.415C86.9123 189.658 91.3622 186.442 87.654 184.928C83.9457 183.415 85.2066 181.417 85.2066 178.117C85.2066 172.593 111.312 152.879 111.313 155.187C120.42 156.458 128.21 168.758 130.967 174.75Z" fill="white"/>
<path d="M3.32566 121C97.5302 121 98.9555 153.027 109.374 154.446C117.609 157.678 124.807 167.514 87.7229 181C84.3293 179.649 86.3994 177.959 82.3271 177.791C78.2549 177.622 83.6846 170.392 75.3704 173.095C67.0562 175.797 69.6353 171.912 64.2057 171.912C59.8619 171.912 60.3823 169.885 61.1854 168.872C59.8846 169.378 56.4005 169.885 52.8713 167.858C50.0465 166.236 52.9957 164.281 54.5474 163.475C50.9743 164.94 43.0607 161.639 41.3672 159.953C40.4094 158.999 43.1818 157.831 45.2598 157.176C40.9762 157.487 31.6927 156.005 30.3043 154.446C29.0283 153.014 33.3245 150.561 35.6321 149.514C31.1187 149.739 21.8883 149.851 21.0738 148.5C20.3805 147.35 25.0809 144.943 28.6017 143.405C22.1407 145.781 16.7002 143.995 14.6601 142.689C21.7639 138.601 33.9829 131.554 26.0284 136.068C18.074 140.581 12.3072 137.948 10.4181 136.068C17.3636 134.187 28.9808 130.426 19.8861 130.426C10.7914 130.426 2.83926 128.218 0 127.115C8.51777 126.484 23.3747 125.128 14.6601 124.75C5.94547 124.372 3.47272 122.092 3.32566 121Z" fill="white"/>
<path d="M176.033 173.75C166.511 173.75 160.347 177.256 158.456 179.009C150.261 196.528 179.223 209.394 181.596 212.799C183.969 216.205 188.642 211.285 191.052 211.285C193.462 211.285 193.611 209.772 197.875 208.258C202.14 206.745 199.729 200.918 203.808 200.35C207.887 199.783 206.033 196.566 210.261 195.242C214.488 193.918 210.446 190.172 215.267 189.415C220.088 188.658 215.638 185.442 219.346 183.928C223.054 182.415 221.793 180.417 221.793 177.117C221.793 171.593 195.688 151.879 195.687 154.187C186.58 155.458 178.79 167.758 176.033 173.75Z" fill="white"/>
<path d="M303.674 118C209.47 118 208.045 151.095 197.626 152.561C189.391 155.901 182.193 166.064 219.277 180C222.671 178.604 220.601 176.858 224.673 176.684C228.745 176.509 223.315 169.038 231.63 171.831C239.944 174.624 237.365 170.609 242.794 170.609C247.138 170.609 246.618 168.515 245.815 167.467C247.115 167.991 250.599 168.515 254.129 166.42C256.953 164.744 254.004 162.724 252.453 161.891C256.026 163.405 263.939 159.993 265.633 158.251C266.591 157.266 263.818 156.058 261.74 155.381C266.024 155.703 275.307 154.171 276.696 152.561C277.972 151.081 273.675 148.546 271.368 147.464C275.881 147.697 285.112 147.813 285.926 146.417C286.619 145.228 281.919 142.741 278.398 141.151C284.859 143.607 290.3 141.761 292.34 140.412C285.236 136.188 273.017 128.906 280.972 133.57C288.926 138.234 294.693 135.513 296.582 133.57C289.636 131.627 278.019 127.74 287.114 127.74C296.209 127.74 304.161 125.459 307 124.319C298.482 123.667 283.625 122.266 292.34 121.875C301.055 121.484 303.527 119.129 303.674 118Z" fill="white"/>
<path d="M133.455 179.767C140.095 175.647 146.246 139.789 148.492 122.375C155.241 121.337 167.81 119.885 164.088 122.375C159.435 125.487 160.44 130.637 157.35 146.68C154.261 162.723 164.088 175.098 177.078 184.398C190.068 193.698 179.125 224.191 168.74 243.828C158.355 263.465 148.492 261.946 129.807 256.24C111.122 250.534 116.817 231.971 116.817 211.816C116.817 191.66 125.154 184.917 133.455 179.767Z" fill="white"/>
<path d="M129.079 268.551C134.538 258.748 132.635 253.658 131.001 252.338C127.549 250.867 127.314 254.186 127.039 262.481C126.765 270.776 123.47 275.376 121.705 277.375C119.94 279.373 110.331 282.766 112.253 283.445C113.79 283.988 117.077 282.264 118.528 281.334C117.116 283.747 115.775 287.412 121.705 282.766C129.118 276.96 137.864 281.975 138.806 281.334C139.559 280.821 137.943 279.536 137.041 278.958C135.668 278.732 132.154 278.099 129.079 277.375C126.004 276.651 127.798 271.191 129.079 268.551Z" fill="#FF6B0A"/>
<path d="M155.554 268.551C150.296 258.748 152.129 253.658 153.703 252.338C157.027 250.867 157.253 254.186 157.518 262.481C157.782 270.776 160.955 275.376 162.654 277.375C164.354 279.373 173.607 282.766 171.757 283.445C170.276 283.988 167.111 282.264 165.714 281.334C167.073 283.747 168.365 287.412 162.654 282.766C155.516 276.96 147.094 281.975 146.187 281.334C145.462 280.821 147.018 279.536 147.887 278.958C149.209 278.732 152.593 278.099 155.554 277.375C158.515 276.651 156.788 271.191 155.554 268.551Z" fill="#FF6B0A"/>
<path d="M149.178 108.247C149.386 102.904 154.508 102.88 157.044 103.535C163.871 102.009 162.943 111.401 164.501 113.33C166.06 115.26 165.948 117.152 165.429 122.791C164.909 128.431 157.044 133.403 152.999 132.846C148.955 132.29 146.321 126.576 144.725 120.825C143.13 115.074 148.918 114.926 149.178 108.247Z" fill="white"/>
<ellipse cx="1.33452" cy="2.0971" rx="1.33452" ry="2.0971" transform="matrix(-0.978865 0.204508 0.204508 0.978865 163.98 108.206)" fill="#0D070C"/>
<ellipse cx="148.973" cy="110.767" rx="1.33452" ry="2.0971" transform="rotate(6.93695 148.973 110.767)" fill="#0D070C"/>
<ellipse cx="162.207" cy="120.446" rx="3.2252" ry="4.5429" transform="rotate(22.9491 162.207 120.446)" fill="url(#paint0_radial_2_460)"/>
<ellipse cx="148.546" cy="119.983" rx="3.2252" ry="4.5429" transform="rotate(-35.1816 148.546 119.983)" fill="url(#paint1_radial_2_460)"/>
<ellipse opacity="0.2" cx="0.598251" cy="0.940109" rx="0.598251" ry="0.940109" transform="matrix(-0.895075 0.445916 0.445916 0.895075 149.14 108.96)" fill="white"/>
<ellipse opacity="0.2" cx="0.598251" cy="0.940109" rx="0.598251" ry="0.940109" transform="matrix(-0.895075 0.445916 0.445916 0.895075 163.252 108.573)" fill="white"/>
<path d="M161.476 113.949C161.5 107.308 155.094 106.471 155.124 106.552C148.804 108.537 149.621 114.226 149.884 115.062C150.606 117.363 146.816 119.584 148.078 121.96C149.339 124.336 149.538 129.388 150.64 132.871C151.315 135.006 152.231 135.757 152.862 135.931C152.696 135.94 152.766 135.945 152.934 135.949C153.096 135.984 153.238 135.98 153.347 135.952C153.193 135.952 153.043 135.951 152.934 135.949C152.91 135.944 152.887 135.938 152.862 135.931C153.081 135.92 153.709 135.903 155.061 135.88C158.875 135.813 158.901 130.803 161.944 124.949C164.987 119.096 161.447 122.251 161.476 113.949Z" fill="#FF6B0A"/>
<path d="M154.958 133.451C157.994 133.055 158.691 126.248 158.66 122.894C156.77 122.561 152.685 122.156 151.47 123.2C149.951 124.504 151.163 133.946 154.958 133.451Z" fill="#1F0C02"/>
<path d="M154.303 132.62C152.158 132.444 152.633 127.746 153.138 125.419L157.281 125.243C157.182 127.775 156.447 132.796 154.303 132.62Z" fill="#956C7C"/>
<path d="M154.468 130.939C154.014 130.643 154.461 125.995 154.742 123.708L155.656 123.766C155.449 126.281 154.922 131.235 154.468 130.939Z" fill="#86616F"/>
<path d="M159.789 120.27C157.546 115.977 158.643 113.497 159.472 112.794C156.092 108.702 152.508 111.325 151.138 113.148C153.749 117.331 151.794 113.979 150.503 120.665C149.471 126.013 153.043 127.665 154.958 127.822C157.503 127.094 162.032 124.564 159.789 120.27Z" fill="#EA5F03"/>
<path d="M150.337 122.886C154.932 116.05 158.738 120.748 160.066 123.951C159.678 125.304 158.09 127.976 154.841 127.847C151.592 127.717 150.484 124.486 150.337 122.886Z" fill="#EFE5D5"/>
<path d="M155.744 121.82C155.773 121.253 155.92 120.201 156.271 120.526C156.622 120.852 156.066 121.524 155.744 121.82Z" fill="#DACAB0"/>
<path d="M154.67 121.867C154.682 121.3 154.612 120.24 154.238 120.539C153.864 120.838 154.371 121.549 154.67 121.867Z" fill="#DACAB0"/>
<path d="M151.853 99.3969L151.627 104.251C154.382 106.684 159.24 105.542 161.325 104.667L161.482 99.718L151.853 99.3969Z" fill="#373500"/>
<path d="M151.627 104.251C152.349 106.838 155.347 110.301 161.314 104.632L151.627 104.251Z" fill="#373500"/>
<ellipse cx="4.82508" cy="0.831725" rx="4.82508" ry="0.831725" transform="matrix(-0.99961 -0.0279109 -0.0279109 0.99961 161.503 98.8621)" fill="#373500"/>
<path d="M151.853 99.3969L151.627 104.251C154.382 106.684 159.24 105.542 161.325 104.667L161.482 99.718C161.482 99.718 160.703 99.8593 160.2 99.8481C159.598 99.8348 158.679 99.5868 158.679 99.5868L155.883 103.809L154.46 99.2782C154.46 99.2782 153.686 99.6697 153.151 99.6895C152.632 99.7087 151.853 99.3969 151.853 99.3969Z" fill="#4B4800"/>
<path d="M156.959 100.13C156.935 100.142 156.916 100.15 156.898 100.161C156.751 100.25 156.657 100.359 156.611 100.523C156.591 100.592 156.58 100.664 156.565 100.734C156.552 100.796 156.539 100.856 156.525 100.918C156.521 100.934 156.522 100.941 156.541 100.945C156.58 100.952 156.612 100.974 156.624 101.014C156.636 101.049 156.627 101.08 156.604 101.106C156.58 101.133 156.548 101.141 156.513 101.139C156.495 101.137 156.484 101.129 156.476 101.112C156.415 100.983 156.385 100.847 156.381 100.705C156.378 100.587 156.399 100.471 156.415 100.356C156.424 100.29 156.43 100.223 156.441 100.158C156.447 100.116 156.45 100.077 156.443 100.036C156.437 99.9943 156.422 99.9555 156.396 99.9192C156.363 99.9475 156.34 99.9825 156.328 100.022C156.317 100.06 156.311 100.1 156.306 100.138C156.301 100.179 156.301 100.221 156.298 100.262C156.292 100.369 156.286 100.477 156.275 100.585C156.257 100.764 156.195 100.927 156.089 101.071C156.075 101.091 156.058 101.095 156.036 101.091C155.981 101.081 155.943 101.034 155.948 100.982C155.953 100.933 156 100.894 156.055 100.897C156.075 100.898 156.077 100.891 156.076 100.874C156.074 100.789 156.073 100.703 156.072 100.617C156.069 100.52 156.073 100.424 156.042 100.33C156.001 100.206 155.932 100.119 155.829 100.038C155.821 100.033 155.813 100.027 155.802 100.019C155.801 100.03 155.801 100.036 155.8 100.043C155.757 100.49 155.715 100.919 155.672 101.366C155.67 101.391 155.67 101.391 155.694 101.393C155.786 101.402 155.879 101.411 155.971 101.42C155.987 101.422 155.993 101.427 155.995 101.443C156.01 101.568 156.063 101.676 156.157 101.762C156.176 101.78 156.193 101.803 156.211 101.823C156.269 101.768 156.346 101.734 156.397 101.668C156.439 101.613 156.474 101.555 156.493 101.489C156.498 101.475 156.505 101.471 156.519 101.472C156.613 101.481 156.706 101.49 156.8 101.499C156.817 101.501 156.824 101.498 156.826 101.479C156.869 101.03 156.911 100.598 156.954 100.149C156.957 100.147 156.957 100.143 156.959 100.13ZM156.836 100.325C156.839 100.327 156.842 100.327 156.844 100.329C156.844 100.337 156.843 100.345 156.842 100.353C156.821 100.569 156.802 100.767 156.781 100.983C156.778 101.019 156.778 101.019 156.74 101.016C156.726 101.014 156.72 101.01 156.718 100.996C156.708 100.952 156.683 100.917 156.647 100.892C156.631 100.881 156.63 100.871 156.634 100.855C156.652 100.776 156.672 100.696 156.686 100.617C156.702 100.535 156.727 100.475 156.776 100.406C156.795 100.377 156.816 100.353 156.836 100.325ZM155.879 100.236C155.881 100.237 155.882 100.235 155.885 100.236C155.891 100.246 155.897 100.256 155.902 100.265C155.94 100.339 155.972 100.397 155.976 100.48C155.98 100.585 155.981 100.69 155.984 100.795C155.985 100.81 155.981 100.818 155.966 100.825C155.926 100.843 155.895 100.872 155.875 100.913C155.867 100.932 155.853 100.935 155.824 100.927C155.805 100.922 155.814 100.908 155.815 100.898C155.836 100.679 155.855 100.476 155.877 100.256C155.876 100.249 155.877 100.242 155.879 100.236ZM156.52 101.235C156.526 101.235 156.533 101.234 156.541 101.233C156.616 101.224 156.676 101.193 156.707 101.121C156.711 101.111 156.716 101.106 156.727 101.109C156.735 101.109 156.743 101.11 156.751 101.111C156.763 101.112 156.767 101.117 156.766 101.129C156.757 101.215 156.749 101.303 156.739 101.39C156.739 101.394 156.729 101.404 156.724 101.403C156.661 101.398 156.597 101.392 156.535 101.385C156.53 101.384 156.521 101.375 156.521 101.371C156.52 101.326 156.52 101.282 156.52 101.235ZM156.022 101.187C156.013 101.233 156.003 101.276 155.994 101.321C155.992 101.334 155.983 101.333 155.973 101.332C155.914 101.326 155.856 101.319 155.797 101.315C155.778 101.313 155.773 101.305 155.776 101.288C155.784 101.211 155.791 101.133 155.798 101.055C155.802 101.019 155.802 101.019 155.838 101.023C155.848 101.024 155.858 101.024 155.86 101.038C155.874 101.108 155.921 101.149 155.984 101.175C155.997 101.18 156.011 101.183 156.022 101.187ZM156.3 100.885C156.324 100.978 156.348 101.067 156.39 101.153C156.352 101.174 156.316 101.194 156.279 101.212C156.274 101.215 156.263 101.212 156.257 101.208C156.229 101.186 156.203 101.163 156.175 101.141C156.166 101.135 156.164 101.129 156.171 101.119C156.221 101.053 156.257 100.979 156.29 100.903C156.294 100.898 156.297 100.891 156.3 100.885ZM156.396 101.462C156.395 101.523 156.319 101.637 156.279 101.648C156.278 101.647 156.277 101.646 156.277 101.646C156.283 101.585 156.288 101.525 156.294 101.467C156.295 101.462 156.304 101.456 156.308 101.455C156.338 101.456 156.367 101.46 156.396 101.462ZM156.181 101.641C156.134 101.607 156.088 101.478 156.101 101.433C156.126 101.435 156.154 101.438 156.18 101.44C156.195 101.442 156.199 101.448 156.198 101.462C156.193 101.51 156.188 101.559 156.183 101.607C156.184 101.618 156.183 101.628 156.181 101.641ZM156.364 101.367C156.349 101.366 156.332 101.365 156.318 101.362C156.313 101.361 156.304 101.351 156.306 101.348C156.318 101.297 156.355 101.257 156.405 101.25C156.415 101.249 156.421 101.251 156.422 101.262C156.424 101.294 156.424 101.325 156.426 101.358C156.426 101.37 156.418 101.374 156.408 101.373C156.394 101.37 156.379 101.369 156.364 101.367ZM156.15 101.347C156.136 101.345 156.123 101.344 156.109 101.343C156.095 101.342 156.088 101.336 156.092 101.321C156.098 101.292 156.104 101.264 156.112 101.236C156.115 101.222 156.123 101.219 156.136 101.225C156.179 101.242 156.214 101.293 156.211 101.338C156.21 101.343 156.201 101.35 156.197 101.351C156.18 101.351 156.165 101.348 156.15 101.347Z" fill="#FFD500"/>
<path d="M141.066 162.794C148.597 165.522 154.772 163.087 158.393 161.421L159.283 163.981C151.128 168.339 144.022 166.832 140.435 165.205L141.066 162.794Z" fill="#005BBB"/>
<path d="M140.398 165.354C149.425 168.962 155.712 165.72 159.357 164.092L160.396 166.652C152.172 170.925 143.349 169.066 139.804 167.394L140.398 165.354Z" fill="#FFD500"/>
<path d="M139.997 166.899C134.664 166.885 125.6 170.667 131.942 184.51C138.237 198.25 138.917 207.41 135.025 206.204C134.997 206.194 134.968 206.184 134.938 206.176C134.967 206.186 134.996 206.195 135.025 206.204C136.1 206.619 135.409 208.839 135.917 209.614C140.336 209.91 141.128 201.36 132.626 184.229C130.619 179.634 129.806 170.195 139.304 169.204L139.997 166.899Z" fill="#FFD500"/>
<path d="M140.986 163.564C135.624 162.663 129.671 162.919 134.46 178.033C139.201 192.993 132.87 192.822 129.003 190.824C128.966 190.802 128.926 190.781 128.883 190.762C128.923 190.783 128.963 190.804 129.003 190.824C129.948 191.398 128.633 192.757 129.05 193.618C133.461 194.653 140.861 192.95 135.18 177.862C133.689 172.861 130.731 164.894 140.398 165.466L140.986 163.564Z" fill="#005BBB"/>
<path d="M116.5 212.5C159.807 240.401 167.893 199.168 166.273 175.15L169 174H172.283C176.291 237.461 135.311 233.838 116.5 221V212.5Z" fill="#9B9B9B"/>
<path d="M86.6094 25.3516L83.3672 35H81.0938L85.3438 23.625H86.7969L86.6094 25.3516ZM89.3203 35L86.0625 25.3516L85.8672 23.625H87.3281L91.6016 35H89.3203ZM89.1719 30.7734V32.4688H83.0703V30.7734H89.1719ZM94.8047 23V35H92.7344V23H94.8047ZM98.9609 23V35H96.8906V23H98.9609ZM109.562 32.6875C109.562 32.5104 109.516 32.3516 109.422 32.2109C109.328 32.0703 109.151 31.9427 108.891 31.8281C108.635 31.7083 108.26 31.5964 107.766 31.4922C107.328 31.3984 106.924 31.2812 106.555 31.1406C106.185 31 105.867 30.8307 105.602 30.6328C105.336 30.4297 105.128 30.1927 104.977 29.9219C104.831 29.6458 104.758 29.3281 104.758 28.9688C104.758 28.6198 104.833 28.2917 104.984 27.9844C105.135 27.6719 105.354 27.3984 105.641 27.1641C105.927 26.9245 106.276 26.737 106.688 26.6016C107.099 26.4609 107.562 26.3906 108.078 26.3906C108.797 26.3906 109.414 26.5078 109.93 26.7422C110.451 26.9766 110.849 27.2995 111.125 27.7109C111.401 28.1172 111.539 28.5755 111.539 29.0859H109.477C109.477 28.862 109.424 28.6589 109.32 28.4766C109.221 28.2943 109.068 28.1484 108.859 28.0391C108.651 27.9245 108.388 27.8672 108.07 27.8672C107.784 27.8672 107.542 27.9141 107.344 28.0078C107.151 28.1016 107.005 28.224 106.906 28.375C106.807 28.526 106.758 28.6927 106.758 28.875C106.758 29.0104 106.784 29.1328 106.836 29.2422C106.893 29.3464 106.984 29.4427 107.109 29.5312C107.234 29.6198 107.404 29.7005 107.617 29.7734C107.836 29.8464 108.104 29.9167 108.422 29.9844C109.052 30.1094 109.602 30.276 110.07 30.4844C110.544 30.6875 110.914 30.9583 111.18 31.2969C111.445 31.6354 111.578 32.0677 111.578 32.5938C111.578 32.9688 111.497 33.3125 111.336 33.625C111.174 33.9323 110.94 34.2005 110.633 34.4297C110.326 34.6589 109.958 34.8385 109.531 34.9688C109.104 35.0938 108.622 35.1562 108.086 35.1562C107.31 35.1562 106.654 35.0182 106.117 34.7422C105.581 34.4609 105.174 34.1068 104.898 33.6797C104.622 33.2474 104.484 32.7995 104.484 32.3359H106.461C106.477 32.6641 106.565 32.9271 106.727 33.125C106.888 33.3229 107.091 33.4661 107.336 33.5547C107.586 33.638 107.849 33.6797 108.125 33.6797C108.438 33.6797 108.701 33.638 108.914 33.5547C109.128 33.4661 109.289 33.349 109.398 33.2031C109.508 33.0521 109.562 32.8802 109.562 32.6875ZM115.625 34.0625L117.891 26.5469H120.102L116.711 36.2812C116.633 36.4896 116.531 36.7161 116.406 36.9609C116.286 37.2057 116.125 37.4375 115.922 37.6562C115.719 37.8802 115.464 38.0625 115.156 38.2031C114.854 38.3438 114.487 38.4141 114.055 38.4141C113.867 38.4141 113.701 38.401 113.555 38.375C113.409 38.349 113.255 38.3151 113.094 38.2734V36.7266C113.146 36.7318 113.206 36.7344 113.273 36.7344C113.346 36.7396 113.409 36.7422 113.461 36.7422C113.763 36.7422 114.013 36.7057 114.211 36.6328C114.409 36.5651 114.568 36.4531 114.688 36.2969C114.812 36.1458 114.917 35.9479 115 35.7031L115.625 34.0625ZM114.508 26.5469L116.422 32.7734L116.758 34.9531L115.336 35.2109L112.281 26.5469H114.508ZM125.75 32.6875C125.75 32.5104 125.703 32.3516 125.609 32.2109C125.516 32.0703 125.339 31.9427 125.078 31.8281C124.823 31.7083 124.448 31.5964 123.953 31.4922C123.516 31.3984 123.112 31.2812 122.742 31.1406C122.372 31 122.055 30.8307 121.789 30.6328C121.523 30.4297 121.315 30.1927 121.164 29.9219C121.018 29.6458 120.945 29.3281 120.945 28.9688C120.945 28.6198 121.021 28.2917 121.172 27.9844C121.323 27.6719 121.542 27.3984 121.828 27.1641C122.115 26.9245 122.464 26.737 122.875 26.6016C123.286 26.4609 123.75 26.3906 124.266 26.3906C124.984 26.3906 125.602 26.5078 126.117 26.7422C126.638 26.9766 127.036 27.2995 127.312 27.7109C127.589 28.1172 127.727 28.5755 127.727 29.0859H125.664C125.664 28.862 125.612 28.6589 125.508 28.4766C125.409 28.2943 125.255 28.1484 125.047 28.0391C124.839 27.9245 124.576 27.8672 124.258 27.8672C123.971 27.8672 123.729 27.9141 123.531 28.0078C123.339 28.1016 123.193 28.224 123.094 28.375C122.995 28.526 122.945 28.6927 122.945 28.875C122.945 29.0104 122.971 29.1328 123.023 29.2422C123.081 29.3464 123.172 29.4427 123.297 29.5312C123.422 29.6198 123.591 29.7005 123.805 29.7734C124.023 29.8464 124.292 29.9167 124.609 29.9844C125.24 30.1094 125.789 30.276 126.258 30.4844C126.732 30.6875 127.102 30.9583 127.367 31.2969C127.633 31.6354 127.766 32.0677 127.766 32.5938C127.766 32.9688 127.685 33.3125 127.523 33.625C127.362 33.9323 127.128 34.2005 126.82 34.4297C126.513 34.6589 126.146 34.8385 125.719 34.9688C125.292 35.0938 124.81 35.1562 124.273 35.1562C123.497 35.1562 122.841 35.0182 122.305 34.7422C121.768 34.4609 121.362 34.1068 121.086 33.6797C120.81 33.2474 120.672 32.7995 120.672 32.3359H122.648C122.664 32.6641 122.753 32.9271 122.914 33.125C123.076 33.3229 123.279 33.4661 123.523 33.5547C123.773 33.638 124.036 33.6797 124.312 33.6797C124.625 33.6797 124.888 33.638 125.102 33.5547C125.315 33.4661 125.477 33.349 125.586 33.2031C125.695 33.0521 125.75 32.8802 125.75 32.6875ZM133.336 26.5469V28.0312H128.492V26.5469H133.336ZM129.789 24.4688H131.859V32.5625C131.859 32.8125 131.893 33.0052 131.961 33.1406C132.029 33.276 132.13 33.3672 132.266 33.4141C132.401 33.4609 132.562 33.4844 132.75 33.4844C132.885 33.4844 133.01 33.4766 133.125 33.4609C133.24 33.4453 133.336 33.4297 133.414 33.4141L133.422 34.9609C133.25 35.0182 133.055 35.0651 132.836 35.1016C132.622 35.138 132.38 35.1562 132.109 35.1562C131.646 35.1562 131.24 35.0781 130.891 34.9219C130.542 34.7604 130.271 34.5026 130.078 34.1484C129.885 33.7891 129.789 33.3151 129.789 32.7266V24.4688ZM138.508 35.1562C137.867 35.1562 137.292 35.0521 136.781 34.8438C136.271 34.6354 135.836 34.3464 135.477 33.9766C135.122 33.6016 134.849 33.1667 134.656 32.6719C134.469 32.1719 134.375 31.6354 134.375 31.0625V30.75C134.375 30.099 134.469 29.5078 134.656 28.9766C134.844 28.4401 135.109 27.9792 135.453 27.5938C135.797 27.2083 136.208 26.9115 136.688 26.7031C137.167 26.4948 137.695 26.3906 138.273 26.3906C138.872 26.3906 139.401 26.4922 139.859 26.6953C140.318 26.8932 140.701 27.1745 141.008 27.5391C141.315 27.9036 141.547 28.3411 141.703 28.8516C141.859 29.3568 141.938 29.9167 141.938 30.5312V31.3984H135.312V29.9766H139.906V29.8203C139.896 29.4922 139.833 29.1927 139.719 28.9219C139.604 28.6458 139.427 28.4271 139.188 28.2656C138.948 28.099 138.638 28.0156 138.258 28.0156C137.951 28.0156 137.682 28.0833 137.453 28.2188C137.229 28.349 137.042 28.5365 136.891 28.7812C136.745 29.0208 136.635 29.3073 136.562 29.6406C136.49 29.974 136.453 30.3438 136.453 30.75V31.0625C136.453 31.4167 136.5 31.7448 136.594 32.0469C136.693 32.349 136.836 32.612 137.023 32.8359C137.216 33.0547 137.445 33.2266 137.711 33.3516C137.982 33.4714 138.289 33.5312 138.633 33.5312C139.065 33.5312 139.456 33.4479 139.805 33.2812C140.159 33.1094 140.466 32.8568 140.727 32.5234L141.766 33.6016C141.589 33.862 141.349 34.112 141.047 34.3516C140.75 34.5911 140.391 34.7865 139.969 34.9375C139.547 35.0833 139.06 35.1562 138.508 35.1562ZM145.375 28.2812V35H143.312V26.5469H145.258L145.375 28.2812ZM145.07 30.4688H144.438C144.438 29.8802 144.508 29.3385 144.648 28.8438C144.794 28.349 145.008 27.9193 145.289 27.5547C145.57 27.1849 145.917 26.8984 146.328 26.6953C146.745 26.4922 147.227 26.3906 147.773 26.3906C148.154 26.3906 148.503 26.4479 148.82 26.5625C149.138 26.6719 149.411 26.8464 149.641 27.0859C149.875 27.3203 150.055 27.6276 150.18 28.0078C150.305 28.3828 150.367 28.8333 150.367 29.3594V35H148.305V29.5703C148.305 29.1745 148.247 28.8646 148.133 28.6406C148.023 28.4167 147.865 28.2604 147.656 28.1719C147.448 28.0781 147.198 28.0312 146.906 28.0312C146.583 28.0312 146.305 28.0964 146.07 28.2266C145.841 28.3516 145.651 28.526 145.5 28.75C145.354 28.974 145.245 29.2318 145.172 29.5234C145.104 29.8151 145.07 30.1302 145.07 30.4688ZM150.211 30.0859L149.359 30.2422C149.365 29.7109 149.438 29.2135 149.578 28.75C149.719 28.2812 149.924 27.8724 150.195 27.5234C150.471 27.1693 150.812 26.8932 151.219 26.6953C151.63 26.4922 152.104 26.3906 152.641 26.3906C153.057 26.3906 153.432 26.4505 153.766 26.5703C154.104 26.6849 154.393 26.8698 154.633 27.125C154.872 27.375 155.055 27.7005 155.18 28.1016C155.31 28.5026 155.375 28.9922 155.375 29.5703V35H153.297V29.5625C153.297 29.151 153.24 28.8359 153.125 28.6172C153.016 28.3984 152.857 28.2474 152.648 28.1641C152.44 28.0755 152.195 28.0312 151.914 28.0312C151.628 28.0312 151.378 28.0859 151.164 28.1953C150.956 28.2995 150.779 28.4453 150.633 28.6328C150.492 28.8203 150.385 29.0391 150.312 29.2891C150.245 29.5339 150.211 29.7995 150.211 30.0859ZM161.875 32.6875C161.875 32.5104 161.828 32.3516 161.734 32.2109C161.641 32.0703 161.464 31.9427 161.203 31.8281C160.948 31.7083 160.573 31.5964 160.078 31.4922C159.641 31.3984 159.237 31.2812 158.867 31.1406C158.497 31 158.18 30.8307 157.914 30.6328C157.648 30.4297 157.44 30.1927 157.289 29.9219C157.143 29.6458 157.07 29.3281 157.07 28.9688C157.07 28.6198 157.146 28.2917 157.297 27.9844C157.448 27.6719 157.667 27.3984 157.953 27.1641C158.24 26.9245 158.589 26.737 159 26.6016C159.411 26.4609 159.875 26.3906 160.391 26.3906C161.109 26.3906 161.727 26.5078 162.242 26.7422C162.763 26.9766 163.161 27.2995 163.438 27.7109C163.714 28.1172 163.852 28.5755 163.852 29.0859H161.789C161.789 28.862 161.737 28.6589 161.633 28.4766C161.534 28.2943 161.38 28.1484 161.172 28.0391C160.964 27.9245 160.701 27.8672 160.383 27.8672C160.096 27.8672 159.854 27.9141 159.656 28.0078C159.464 28.1016 159.318 28.224 159.219 28.375C159.12 28.526 159.07 28.6927 159.07 28.875C159.07 29.0104 159.096 29.1328 159.148 29.2422C159.206 29.3464 159.297 29.4427 159.422 29.5312C159.547 29.6198 159.716 29.7005 159.93 29.7734C160.148 29.8464 160.417 29.9167 160.734 29.9844C161.365 30.1094 161.914 30.276 162.383 30.4844C162.857 30.6875 163.227 30.9583 163.492 31.2969C163.758 31.6354 163.891 32.0677 163.891 32.5938C163.891 32.9688 163.81 33.3125 163.648 33.625C163.487 33.9323 163.253 34.2005 162.945 34.4297C162.638 34.6589 162.271 34.8385 161.844 34.9688C161.417 35.0938 160.935 35.1562 160.398 35.1562C159.622 35.1562 158.966 35.0182 158.43 34.7422C157.893 34.4609 157.487 34.1068 157.211 33.6797C156.935 33.2474 156.797 32.7995 156.797 32.3359H158.773C158.789 32.6641 158.878 32.9271 159.039 33.125C159.201 33.3229 159.404 33.4661 159.648 33.5547C159.898 33.638 160.161 33.6797 160.438 33.6797C160.75 33.6797 161.013 33.638 161.227 33.5547C161.44 33.4661 161.602 33.349 161.711 33.2031C161.82 33.0521 161.875 32.8802 161.875 32.6875ZM83.9844 48.2812V55H81.9219V46.5469H83.8672L83.9844 48.2812ZM83.6797 50.4688H83.0469C83.0469 49.8802 83.1172 49.3385 83.2578 48.8438C83.4036 48.349 83.6172 47.9193 83.8984 47.5547C84.1797 47.1849 84.526 46.8984 84.9375 46.6953C85.3542 46.4922 85.8359 46.3906 86.3828 46.3906C86.763 46.3906 87.112 46.4479 87.4297 46.5625C87.7474 46.6719 88.0208 46.8464 88.25 47.0859C88.4844 47.3203 88.6641 47.6276 88.7891 48.0078C88.9141 48.3828 88.9766 48.8333 88.9766 49.3594V55H86.9141V49.5703C86.9141 49.1745 86.8568 48.8646 86.7422 48.6406C86.6328 48.4167 86.474 48.2604 86.2656 48.1719C86.0573 48.0781 85.8073 48.0312 85.5156 48.0312C85.1927 48.0312 84.9141 48.0964 84.6797 48.2266C84.4505 48.3516 84.2604 48.526 84.1094 48.75C83.9635 48.974 83.8542 49.2318 83.7812 49.5234C83.7135 49.8151 83.6797 50.1302 83.6797 50.4688ZM88.8203 50.0859L87.9688 50.2422C87.974 49.7109 88.0469 49.2135 88.1875 48.75C88.3281 48.2812 88.5339 47.8724 88.8047 47.5234C89.0807 47.1693 89.4219 46.8932 89.8281 46.6953C90.2396 46.4922 90.7135 46.3906 91.25 46.3906C91.6667 46.3906 92.0417 46.4505 92.375 46.5703C92.7135 46.6849 93.0026 46.8698 93.2422 47.125C93.4818 47.375 93.6641 47.7005 93.7891 48.1016C93.9193 48.5026 93.9844 48.9922 93.9844 49.5703V55H91.9062V49.5625C91.9062 49.151 91.849 48.8359 91.7344 48.6172C91.625 48.3984 91.4661 48.2474 91.2578 48.1641C91.0495 48.0755 90.8047 48.0312 90.5234 48.0312C90.237 48.0312 89.987 48.0859 89.7734 48.1953C89.5651 48.2995 89.388 48.4453 89.2422 48.6328C89.1016 48.8203 88.9948 49.0391 88.9219 49.2891C88.8542 49.5339 88.8203 49.7995 88.8203 50.0859ZM99.6328 55.1562C98.9922 55.1562 98.4167 55.0521 97.9062 54.8438C97.3958 54.6354 96.9609 54.3464 96.6016 53.9766C96.2474 53.6016 95.974 53.1667 95.7812 52.6719C95.5938 52.1719 95.5 51.6354 95.5 51.0625V50.75C95.5 50.099 95.5938 49.5078 95.7812 48.9766C95.9688 48.4401 96.2344 47.9792 96.5781 47.5938C96.9219 47.2083 97.3333 46.9115 97.8125 46.7031C98.2917 46.4948 98.8203 46.3906 99.3984 46.3906C99.9974 46.3906 100.526 46.4922 100.984 46.6953C101.443 46.8932 101.826 47.1745 102.133 47.5391C102.44 47.9036 102.672 48.3411 102.828 48.8516C102.984 49.3568 103.062 49.9167 103.062 50.5312V51.3984H96.4375V49.9766H101.031V49.8203C101.021 49.4922 100.958 49.1927 100.844 48.9219C100.729 48.6458 100.552 48.4271 100.312 48.2656C100.073 48.099 99.763 48.0156 99.3828 48.0156C99.0755 48.0156 98.8073 48.0833 98.5781 48.2188C98.3542 48.349 98.1667 48.5365 98.0156 48.7812C97.8698 49.0208 97.7604 49.3073 97.6875 49.6406C97.6146 49.974 97.5781 50.3438 97.5781 50.75V51.0625C97.5781 51.4167 97.625 51.7448 97.7188 52.0469C97.8177 52.349 97.9609 52.612 98.1484 52.8359C98.3411 53.0547 98.5703 53.2266 98.8359 53.3516C99.1068 53.4714 99.4141 53.5312 99.7578 53.5312C100.19 53.5312 100.581 53.4479 100.93 53.2812C101.284 53.1094 101.591 52.8568 101.852 52.5234L102.891 53.6016C102.714 53.862 102.474 54.112 102.172 54.3516C101.875 54.5911 101.516 54.7865 101.094 54.9375C100.672 55.0833 100.185 55.1562 99.6328 55.1562ZM109.82 46.5469H111.695V54.7422C111.695 55.5078 111.529 56.1562 111.195 56.6875C110.867 57.224 110.406 57.6302 109.812 57.9062C109.219 58.1875 108.529 58.3281 107.742 58.3281C107.404 58.3281 107.036 58.2812 106.641 58.1875C106.25 58.0938 105.872 57.9453 105.508 57.7422C105.148 57.5443 104.849 57.2865 104.609 56.9688L105.539 55.75C105.82 56.0781 106.138 56.3255 106.492 56.4922C106.846 56.6641 107.229 56.75 107.641 56.75C108.057 56.75 108.411 56.6719 108.703 56.5156C109 56.3646 109.227 56.1406 109.383 55.8438C109.544 55.5521 109.625 55.1927 109.625 54.7656V48.4766L109.82 46.5469ZM104.109 50.875V50.7109C104.109 50.0651 104.188 49.4792 104.344 48.9531C104.5 48.4219 104.724 47.9661 105.016 47.5859C105.312 47.2057 105.669 46.9115 106.086 46.7031C106.508 46.4948 106.982 46.3906 107.508 46.3906C108.065 46.3906 108.534 46.4922 108.914 46.6953C109.299 46.8984 109.617 47.1875 109.867 47.5625C110.122 47.9375 110.32 48.3828 110.461 48.8984C110.607 49.4089 110.719 49.9714 110.797 50.5859V51.0312C110.724 51.6302 110.607 52.1797 110.445 52.6797C110.289 53.1797 110.081 53.6172 109.82 53.9922C109.56 54.362 109.237 54.6484 108.852 54.8516C108.466 55.0547 108.013 55.1562 107.492 55.1562C106.971 55.1562 106.503 55.0495 106.086 54.8359C105.669 54.6224 105.312 54.3229 105.016 53.9375C104.724 53.5521 104.5 53.099 104.344 52.5781C104.188 52.0573 104.109 51.4896 104.109 50.875ZM106.172 50.7109V50.875C106.172 51.2396 106.208 51.5807 106.281 51.8984C106.354 52.2161 106.466 52.4974 106.617 52.7422C106.768 52.9818 106.958 53.1693 107.188 53.3047C107.417 53.4401 107.69 53.5078 108.008 53.5078C108.435 53.5078 108.784 53.4193 109.055 53.2422C109.331 53.0599 109.539 52.8125 109.68 52.5C109.826 52.1823 109.919 51.8255 109.961 51.4297V50.2031C109.935 49.8906 109.878 49.6016 109.789 49.3359C109.706 49.0703 109.589 48.8411 109.438 48.6484C109.286 48.4557 109.094 48.3047 108.859 48.1953C108.625 48.0859 108.346 48.0312 108.023 48.0312C107.711 48.0312 107.438 48.1016 107.203 48.2422C106.969 48.3776 106.776 48.5677 106.625 48.8125C106.474 49.0573 106.359 49.3411 106.281 49.6641C106.208 49.987 106.172 50.3359 106.172 50.7109ZM118.211 53.2031V49.3047C118.211 49.0182 118.161 48.7708 118.062 48.5625C117.964 48.3542 117.812 48.1927 117.609 48.0781C117.406 47.9635 117.148 47.9062 116.836 47.9062C116.56 47.9062 116.318 47.9531 116.109 48.0469C115.906 48.1406 115.75 48.2734 115.641 48.4453C115.531 48.612 115.477 48.8047 115.477 49.0234H113.406C113.406 48.6745 113.49 48.3438 113.656 48.0312C113.823 47.7135 114.06 47.4323 114.367 47.1875C114.68 46.9375 115.052 46.7422 115.484 46.6016C115.922 46.4609 116.411 46.3906 116.953 46.3906C117.594 46.3906 118.164 46.5 118.664 46.7188C119.169 46.9323 119.565 47.2552 119.852 47.6875C120.143 48.1198 120.289 48.6641 120.289 49.3203V53.0078C120.289 53.4297 120.315 53.7917 120.367 54.0938C120.424 54.3906 120.508 54.6484 120.617 54.8672V55H118.516C118.417 54.7865 118.341 54.5156 118.289 54.1875C118.237 53.8542 118.211 53.526 118.211 53.2031ZM118.5 49.8516L118.516 51.0781H117.211C116.888 51.0781 116.604 51.112 116.359 51.1797C116.115 51.2422 115.914 51.3359 115.758 51.4609C115.602 51.5807 115.484 51.7266 115.406 51.8984C115.328 52.0651 115.289 52.2552 115.289 52.4688C115.289 52.6771 115.336 52.8646 115.43 53.0312C115.529 53.1979 115.669 53.3307 115.852 53.4297C116.039 53.5234 116.258 53.5703 116.508 53.5703C116.872 53.5703 117.19 53.4974 117.461 53.3516C117.732 53.2005 117.943 53.0182 118.094 52.8047C118.245 52.5911 118.326 52.388 118.336 52.1953L118.93 53.0859C118.857 53.2995 118.747 53.526 118.602 53.7656C118.456 54.0052 118.268 54.2292 118.039 54.4375C117.81 54.6458 117.534 54.8177 117.211 54.9531C116.888 55.0885 116.513 55.1562 116.086 55.1562C115.539 55.1562 115.049 55.0469 114.617 54.8281C114.185 54.6094 113.844 54.3099 113.594 53.9297C113.344 53.5495 113.219 53.1172 113.219 52.6328C113.219 52.1849 113.302 51.7891 113.469 51.4453C113.635 51.1016 113.883 50.8125 114.211 50.5781C114.539 50.3385 114.945 50.1589 115.43 50.0391C115.919 49.9141 116.479 49.8516 117.109 49.8516H118.5ZM130.789 53.2031V49.3047C130.789 49.0182 130.74 48.7708 130.641 48.5625C130.542 48.3542 130.391 48.1927 130.188 48.0781C129.984 47.9635 129.727 47.9062 129.414 47.9062C129.138 47.9062 128.896 47.9531 128.688 48.0469C128.484 48.1406 128.328 48.2734 128.219 48.4453C128.109 48.612 128.055 48.8047 128.055 49.0234H125.984C125.984 48.6745 126.068 48.3438 126.234 48.0312C126.401 47.7135 126.638 47.4323 126.945 47.1875C127.258 46.9375 127.63 46.7422 128.062 46.6016C128.5 46.4609 128.99 46.3906 129.531 46.3906C130.172 46.3906 130.742 46.5 131.242 46.7188C131.747 46.9323 132.143 47.2552 132.43 47.6875C132.721 48.1198 132.867 48.6641 132.867 49.3203V53.0078C132.867 53.4297 132.893 53.7917 132.945 54.0938C133.003 54.3906 133.086 54.6484 133.195 54.8672V55H131.094C130.995 54.7865 130.919 54.5156 130.867 54.1875C130.815 53.8542 130.789 53.526 130.789 53.2031ZM131.078 49.8516L131.094 51.0781H129.789C129.466 51.0781 129.182 51.112 128.938 51.1797C128.693 51.2422 128.492 51.3359 128.336 51.4609C128.18 51.5807 128.062 51.7266 127.984 51.8984C127.906 52.0651 127.867 52.2552 127.867 52.4688C127.867 52.6771 127.914 52.8646 128.008 53.0312C128.107 53.1979 128.247 53.3307 128.43 53.4297C128.617 53.5234 128.836 53.5703 129.086 53.5703C129.451 53.5703 129.768 53.4974 130.039 53.3516C130.31 53.2005 130.521 53.0182 130.672 52.8047C130.823 52.5911 130.904 52.388 130.914 52.1953L131.508 53.0859C131.435 53.2995 131.326 53.526 131.18 53.7656C131.034 54.0052 130.846 54.2292 130.617 54.4375C130.388 54.6458 130.112 54.8177 129.789 54.9531C129.466 55.0885 129.091 55.1562 128.664 55.1562C128.117 55.1562 127.628 55.0469 127.195 54.8281C126.763 54.6094 126.422 54.3099 126.172 53.9297C125.922 53.5495 125.797 53.1172 125.797 52.6328C125.797 52.1849 125.88 51.7891 126.047 51.4453C126.214 51.1016 126.461 50.8125 126.789 50.5781C127.117 50.3385 127.523 50.1589 128.008 50.0391C128.497 49.9141 129.057 49.8516 129.688 49.8516H131.078ZM138.195 53.5312C138.487 53.5312 138.747 53.474 138.977 53.3594C139.206 53.2448 139.388 53.0833 139.523 52.875C139.664 52.6667 139.74 52.4245 139.75 52.1484H141.695C141.685 52.7214 141.523 53.2344 141.211 53.6875C140.898 54.1406 140.482 54.5 139.961 54.7656C139.445 55.026 138.867 55.1562 138.227 55.1562C137.576 55.1562 137.008 55.0469 136.523 54.8281C136.039 54.6094 135.635 54.3047 135.312 53.9141C134.995 53.5234 134.755 53.0703 134.594 52.5547C134.438 52.0391 134.359 51.487 134.359 50.8984V50.6484C134.359 50.0599 134.438 49.5078 134.594 48.9922C134.755 48.4766 134.995 48.0234 135.312 47.6328C135.635 47.2422 136.039 46.9375 136.523 46.7188C137.008 46.5 137.573 46.3906 138.219 46.3906C138.901 46.3906 139.5 46.5234 140.016 46.7891C140.536 47.0547 140.943 47.4297 141.234 47.9141C141.531 48.3984 141.685 48.9688 141.695 49.625H139.75C139.74 49.3229 139.672 49.0521 139.547 48.8125C139.422 48.5729 139.245 48.3802 139.016 48.2344C138.786 48.0885 138.508 48.0156 138.18 48.0156C137.831 48.0156 137.539 48.0885 137.305 48.2344C137.076 48.3802 136.896 48.5807 136.766 48.8359C136.641 49.0859 136.552 49.3672 136.5 49.6797C136.453 49.987 136.43 50.3099 136.43 50.6484V50.8984C136.43 51.2422 136.453 51.5703 136.5 51.8828C136.552 52.1953 136.641 52.4766 136.766 52.7266C136.896 52.9714 137.076 53.1667 137.305 53.3125C137.539 53.4583 137.836 53.5312 138.195 53.5312ZM147.07 46.5469V48.0312H142.227V46.5469H147.07ZM143.523 44.4688H145.594V52.5625C145.594 52.8125 145.628 53.0052 145.695 53.1406C145.763 53.276 145.865 53.3672 146 53.4141C146.135 53.4609 146.297 53.4844 146.484 53.4844C146.62 53.4844 146.745 53.4766 146.859 53.4609C146.974 53.4453 147.07 53.4297 147.148 53.4141L147.156 54.9609C146.984 55.0182 146.789 55.0651 146.57 55.1016C146.357 55.138 146.115 55.1562 145.844 55.1562C145.38 55.1562 144.974 55.0781 144.625 54.9219C144.276 54.7604 144.005 54.5026 143.812 54.1484C143.62 53.7891 143.523 53.3151 143.523 52.7266V44.4688ZM150.633 46.5469V55H148.562V46.5469H150.633ZM148.422 44.3359C148.422 44.0286 148.526 43.7734 148.734 43.5703C148.948 43.3672 149.234 43.2656 149.594 43.2656C149.953 43.2656 150.237 43.3672 150.445 43.5703C150.659 43.7734 150.766 44.0286 150.766 44.3359C150.766 44.638 150.659 44.8906 150.445 45.0938C150.237 45.2969 149.953 45.3984 149.594 45.3984C149.234 45.3984 148.948 45.2969 148.734 45.0938C148.526 44.8906 148.422 44.638 148.422 44.3359ZM155.406 53.4375L157.375 46.5469H159.531L156.633 55H155.32L155.406 53.4375ZM153.969 46.5469L155.961 53.4531L156.031 55H154.711L151.805 46.5469H153.969ZM165.148 53.2031V49.3047C165.148 49.0182 165.099 48.7708 165 48.5625C164.901 48.3542 164.75 48.1927 164.547 48.0781C164.344 47.9635 164.086 47.9062 163.773 47.9062C163.497 47.9062 163.255 47.9531 163.047 48.0469C162.844 48.1406 162.688 48.2734 162.578 48.4453C162.469 48.612 162.414 48.8047 162.414 49.0234H160.344C160.344 48.6745 160.427 48.3438 160.594 48.0312C160.76 47.7135 160.997 47.4323 161.305 47.1875C161.617 46.9375 161.99 46.7422 162.422 46.6016C162.859 46.4609 163.349 46.3906 163.891 46.3906C164.531 46.3906 165.102 46.5 165.602 46.7188C166.107 46.9323 166.503 47.2552 166.789 47.6875C167.081 48.1198 167.227 48.6641 167.227 49.3203V53.0078C167.227 53.4297 167.253 53.7917 167.305 54.0938C167.362 54.3906 167.445 54.6484 167.555 54.8672V55H165.453C165.354 54.7865 165.279 54.5156 165.227 54.1875C165.174 53.8542 165.148 53.526 165.148 53.2031ZM165.438 49.8516L165.453 51.0781H164.148C163.826 51.0781 163.542 51.112 163.297 51.1797C163.052 51.2422 162.852 51.3359 162.695 51.4609C162.539 51.5807 162.422 51.7266 162.344 51.8984C162.266 52.0651 162.227 52.2552 162.227 52.4688C162.227 52.6771 162.273 52.8646 162.367 53.0312C162.466 53.1979 162.607 53.3307 162.789 53.4297C162.977 53.5234 163.195 53.5703 163.445 53.5703C163.81 53.5703 164.128 53.4974 164.398 53.3516C164.669 53.2005 164.88 53.0182 165.031 52.8047C165.182 52.5911 165.263 52.388 165.273 52.1953L165.867 53.0859C165.794 53.2995 165.685 53.526 165.539 53.7656C165.393 54.0052 165.206 54.2292 164.977 54.4375C164.747 54.6458 164.471 54.8177 164.148 54.9531C163.826 55.0885 163.451 55.1562 163.023 55.1562C162.477 55.1562 161.987 55.0469 161.555 54.8281C161.122 54.6094 160.781 54.3099 160.531 53.9297C160.281 53.5495 160.156 53.1172 160.156 52.6328C160.156 52.1849 160.24 51.7891 160.406 51.4453C160.573 51.1016 160.82 50.8125 161.148 50.5781C161.477 50.3385 161.883 50.1589 162.367 50.0391C162.857 49.9141 163.417 49.8516 164.047 49.8516H165.438ZM173.086 46.5469V48.0312H168.242V46.5469H173.086ZM169.539 44.4688H171.609V52.5625C171.609 52.8125 171.643 53.0052 171.711 53.1406C171.779 53.276 171.88 53.3672 172.016 53.4141C172.151 53.4609 172.312 53.4844 172.5 53.4844C172.635 53.4844 172.76 53.4766 172.875 53.4609C172.99 53.4453 173.086 53.4297 173.164 53.4141L173.172 54.9609C173 55.0182 172.805 55.0651 172.586 55.1016C172.372 55.138 172.13 55.1562 171.859 55.1562C171.396 55.1562 170.99 55.0781 170.641 54.9219C170.292 54.7604 170.021 54.5026 169.828 54.1484C169.635 53.7891 169.539 53.3151 169.539 52.7266V44.4688ZM178.258 55.1562C177.617 55.1562 177.042 55.0521 176.531 54.8438C176.021 54.6354 175.586 54.3464 175.227 53.9766C174.872 53.6016 174.599 53.1667 174.406 52.6719C174.219 52.1719 174.125 51.6354 174.125 51.0625V50.75C174.125 50.099 174.219 49.5078 174.406 48.9766C174.594 48.4401 174.859 47.9792 175.203 47.5938C175.547 47.2083 175.958 46.9115 176.438 46.7031C176.917 46.4948 177.445 46.3906 178.023 46.3906C178.622 46.3906 179.151 46.4922 179.609 46.6953C180.068 46.8932 180.451 47.1745 180.758 47.5391C181.065 47.9036 181.297 48.3411 181.453 48.8516C181.609 49.3568 181.688 49.9167 181.688 50.5312V51.3984H175.062V49.9766H179.656V49.8203C179.646 49.4922 179.583 49.1927 179.469 48.9219C179.354 48.6458 179.177 48.4271 178.938 48.2656C178.698 48.099 178.388 48.0156 178.008 48.0156C177.701 48.0156 177.432 48.0833 177.203 48.2188C176.979 48.349 176.792 48.5365 176.641 48.7812C176.495 49.0208 176.385 49.3073 176.312 49.6406C176.24 49.974 176.203 50.3438 176.203 50.75V51.0625C176.203 51.4167 176.25 51.7448 176.344 52.0469C176.443 52.349 176.586 52.612 176.773 52.8359C176.966 53.0547 177.195 53.2266 177.461 53.3516C177.732 53.4714 178.039 53.5312 178.383 53.5312C178.815 53.5312 179.206 53.4479 179.555 53.2812C179.909 53.1094 180.216 52.8568 180.477 52.5234L181.516 53.6016C181.339 53.862 181.099 54.112 180.797 54.3516C180.5 54.5911 180.141 54.7865 179.719 54.9375C179.297 55.0833 178.81 55.1562 178.258 55.1562ZM188.141 53.2031V43H190.219V55H188.344L188.141 53.2031ZM182.711 50.875V50.7109C182.711 50.0651 182.784 49.4792 182.93 48.9531C183.081 48.4219 183.299 47.9661 183.586 47.5859C183.872 47.2057 184.219 46.9115 184.625 46.7031C185.036 46.4948 185.503 46.3906 186.023 46.3906C186.529 46.3906 186.969 46.4922 187.344 46.6953C187.724 46.8984 188.047 47.1875 188.312 47.5625C188.583 47.9375 188.799 48.3828 188.961 48.8984C189.122 49.4089 189.24 49.9714 189.312 50.5859V51.0312C189.24 51.6302 189.122 52.1797 188.961 52.6797C188.799 53.1797 188.583 53.6172 188.312 53.9922C188.047 54.362 187.724 54.6484 187.344 54.8516C186.964 55.0547 186.518 55.1562 186.008 55.1562C185.492 55.1562 185.029 55.0495 184.617 54.8359C184.211 54.6224 183.865 54.3229 183.578 53.9375C183.297 53.5521 183.081 53.099 182.93 52.5781C182.784 52.0573 182.711 51.4896 182.711 50.875ZM184.781 50.7109V50.875C184.781 51.2396 184.812 51.5807 184.875 51.8984C184.938 52.2161 185.039 52.4974 185.18 52.7422C185.32 52.9818 185.5 53.1693 185.719 53.3047C185.943 53.4401 186.214 53.5078 186.531 53.5078C186.938 53.5078 187.271 53.4193 187.531 53.2422C187.797 53.0599 188.003 52.8125 188.148 52.5C188.294 52.1823 188.388 51.8255 188.43 51.4297V50.2031C188.409 49.8906 188.354 49.6016 188.266 49.3359C188.182 49.0703 188.062 48.8411 187.906 48.6484C187.755 48.4557 187.568 48.3047 187.344 48.1953C187.12 48.0859 186.854 48.0312 186.547 48.0312C186.229 48.0312 185.958 48.1016 185.734 48.2422C185.51 48.3776 185.328 48.5677 185.188 48.8125C185.047 49.0573 184.943 49.3411 184.875 49.6641C184.812 49.987 184.781 50.3359 184.781 50.7109ZM84.375 63.625V75H82.2266V63.625H84.375ZM95.1797 73.2031V69.3047C95.1797 69.0182 95.1302 68.7708 95.0312 68.5625C94.9323 68.3542 94.7812 68.1927 94.5781 68.0781C94.375 67.9635 94.1172 67.9062 93.8047 67.9062C93.5286 67.9062 93.2865 67.9531 93.0781 68.0469C92.875 68.1406 92.7188 68.2734 92.6094 68.4453C92.5 68.612 92.4453 68.8047 92.4453 69.0234H90.375C90.375 68.6745 90.4583 68.3438 90.625 68.0312C90.7917 67.7135 91.0286 67.4323 91.3359 67.1875C91.6484 66.9375 92.0208 66.7422 92.4531 66.6016C92.8906 66.4609 93.3802 66.3906 93.9219 66.3906C94.5625 66.3906 95.1328 66.5 95.6328 66.7188C96.138 66.9323 96.5339 67.2552 96.8203 67.6875C97.112 68.1198 97.2578 68.6641 97.2578 69.3203V73.0078C97.2578 73.4297 97.2839 73.7917 97.3359 74.0938C97.3932 74.3906 97.4766 74.6484 97.5859 74.8672V75H95.4844C95.3854 74.7865 95.3099 74.5156 95.2578 74.1875C95.2057 73.8542 95.1797 73.526 95.1797 73.2031ZM95.4688 69.8516L95.4844 71.0781H94.1797C93.8568 71.0781 93.5729 71.112 93.3281 71.1797C93.0833 71.2422 92.8828 71.3359 92.7266 71.4609C92.5703 71.5807 92.4531 71.7266 92.375 71.8984C92.2969 72.0651 92.2578 72.2552 92.2578 72.4688C92.2578 72.6771 92.3047 72.8646 92.3984 73.0312C92.4974 73.1979 92.638 73.3307 92.8203 73.4297C93.0078 73.5234 93.2266 73.5703 93.4766 73.5703C93.8411 73.5703 94.1589 73.4974 94.4297 73.3516C94.7005 73.2005 94.9115 73.0182 95.0625 72.8047C95.2135 72.5911 95.2943 72.388 95.3047 72.1953L95.8984 73.0859C95.8255 73.2995 95.7161 73.526 95.5703 73.7656C95.4245 74.0052 95.237 74.2292 95.0078 74.4375C94.7786 74.6458 94.5026 74.8177 94.1797 74.9531C93.8568 75.0885 93.4818 75.1562 93.0547 75.1562C92.5078 75.1562 92.0182 75.0469 91.5859 74.8281C91.1536 74.6094 90.8125 74.3099 90.5625 73.9297C90.3125 73.5495 90.1875 73.1172 90.1875 72.6328C90.1875 72.1849 90.2708 71.7891 90.4375 71.4453C90.6042 71.1016 90.8516 70.8125 91.1797 70.5781C91.5078 70.3385 91.9141 70.1589 92.3984 70.0391C92.888 69.9141 93.4479 69.8516 94.0781 69.8516H95.4688ZM101.172 68.2812V75H99.1094V66.5469H101.055L101.172 68.2812ZM100.867 70.4688H100.234C100.234 69.8802 100.305 69.3385 100.445 68.8438C100.591 68.349 100.805 67.9193 101.086 67.5547C101.367 67.1849 101.714 66.8984 102.125 66.6953C102.542 66.4922 103.023 66.3906 103.57 66.3906C103.951 66.3906 104.299 66.4479 104.617 66.5625C104.935 66.6719 105.208 66.8464 105.438 67.0859C105.672 67.3203 105.852 67.6276 105.977 68.0078C106.102 68.3828 106.164 68.8333 106.164 69.3594V75H104.102V69.5703C104.102 69.1745 104.044 68.8646 103.93 68.6406C103.82 68.4167 103.661 68.2604 103.453 68.1719C103.245 68.0781 102.995 68.0312 102.703 68.0312C102.38 68.0312 102.102 68.0964 101.867 68.2266C101.638 68.3516 101.448 68.526 101.297 68.75C101.151 68.974 101.042 69.2318 100.969 69.5234C100.901 69.8151 100.867 70.1302 100.867 70.4688ZM106.008 70.0859L105.156 70.2422C105.161 69.7109 105.234 69.2135 105.375 68.75C105.516 68.2812 105.721 67.8724 105.992 67.5234C106.268 67.1693 106.609 66.8932 107.016 66.6953C107.427 66.4922 107.901 66.3906 108.438 66.3906C108.854 66.3906 109.229 66.4505 109.562 66.5703C109.901 66.6849 110.19 66.8698 110.43 67.125C110.669 67.375 110.852 67.7005 110.977 68.1016C111.107 68.5026 111.172 68.9922 111.172 69.5703V75H109.094V69.5625C109.094 69.151 109.036 68.8359 108.922 68.6172C108.812 68.3984 108.654 68.2474 108.445 68.1641C108.237 68.0755 107.992 68.0312 107.711 68.0312C107.424 68.0312 107.174 68.0859 106.961 68.1953C106.753 68.2995 106.576 68.4453 106.43 68.6328C106.289 68.8203 106.182 69.0391 106.109 69.2891C106.042 69.5339 106.008 69.7995 106.008 70.0859ZM119.359 72.9688L121.211 66.5469H122.523L122.133 68.7656L120.266 75H119.133L119.359 72.9688ZM118.336 66.5469L119.727 72.9844L119.852 75H118.547L116.328 66.5469H118.336ZM124.242 72.8906L125.602 66.5469H127.602L125.398 75H124.094L124.242 72.8906ZM122.727 66.5469L124.562 72.9062L124.805 75H123.672L121.789 68.7656L121.406 66.5469H122.727ZM133.477 73.2031V69.3047C133.477 69.0182 133.427 68.7708 133.328 68.5625C133.229 68.3542 133.078 68.1927 132.875 68.0781C132.672 67.9635 132.414 67.9062 132.102 67.9062C131.826 67.9062 131.583 67.9531 131.375 68.0469C131.172 68.1406 131.016 68.2734 130.906 68.4453C130.797 68.612 130.742 68.8047 130.742 69.0234H128.672C128.672 68.6745 128.755 68.3438 128.922 68.0312C129.089 67.7135 129.326 67.4323 129.633 67.1875C129.945 66.9375 130.318 66.7422 130.75 66.6016C131.188 66.4609 131.677 66.3906 132.219 66.3906C132.859 66.3906 133.43 66.5 133.93 66.7188C134.435 66.9323 134.831 67.2552 135.117 67.6875C135.409 68.1198 135.555 68.6641 135.555 69.3203V73.0078C135.555 73.4297 135.581 73.7917 135.633 74.0938C135.69 74.3906 135.773 74.6484 135.883 74.8672V75H133.781C133.682 74.7865 133.607 74.5156 133.555 74.1875C133.503 73.8542 133.477 73.526 133.477 73.2031ZM133.766 69.8516L133.781 71.0781H132.477C132.154 71.0781 131.87 71.112 131.625 71.1797C131.38 71.2422 131.18 71.3359 131.023 71.4609C130.867 71.5807 130.75 71.7266 130.672 71.8984C130.594 72.0651 130.555 72.2552 130.555 72.4688C130.555 72.6771 130.602 72.8646 130.695 73.0312C130.794 73.1979 130.935 73.3307 131.117 73.4297C131.305 73.5234 131.523 73.5703 131.773 73.5703C132.138 73.5703 132.456 73.4974 132.727 73.3516C132.997 73.2005 133.208 73.0182 133.359 72.8047C133.51 72.5911 133.591 72.388 133.602 72.1953L134.195 73.0859C134.122 73.2995 134.013 73.526 133.867 73.7656C133.721 74.0052 133.534 74.2292 133.305 74.4375C133.076 74.6458 132.799 74.8177 132.477 74.9531C132.154 75.0885 131.779 75.1562 131.352 75.1562C130.805 75.1562 130.315 75.0469 129.883 74.8281C129.451 74.6094 129.109 74.3099 128.859 73.9297C128.609 73.5495 128.484 73.1172 128.484 72.6328C128.484 72.1849 128.568 71.7891 128.734 71.4453C128.901 71.1016 129.148 70.8125 129.477 70.5781C129.805 70.3385 130.211 70.1589 130.695 70.0391C131.185 69.9141 131.745 69.8516 132.375 69.8516H133.766ZM139.602 66.5469V75H137.531V66.5469H139.602ZM137.391 64.3359C137.391 64.0286 137.495 63.7734 137.703 63.5703C137.917 63.3672 138.203 63.2656 138.562 63.2656C138.922 63.2656 139.206 63.3672 139.414 63.5703C139.628 63.7734 139.734 64.0286 139.734 64.3359C139.734 64.638 139.628 64.8906 139.414 65.0938C139.206 65.2969 138.922 65.3984 138.562 65.3984C138.203 65.3984 137.917 65.2969 137.703 65.0938C137.495 64.8906 137.391 64.638 137.391 64.3359ZM145.57 66.5469V68.0312H140.727V66.5469H145.57ZM142.023 64.4688H144.094V72.5625C144.094 72.8125 144.128 73.0052 144.195 73.1406C144.263 73.276 144.365 73.3672 144.5 73.4141C144.635 73.4609 144.797 73.4844 144.984 73.4844C145.12 73.4844 145.245 73.4766 145.359 73.4609C145.474 73.4453 145.57 73.4297 145.648 73.4141L145.656 74.9609C145.484 75.0182 145.289 75.0651 145.07 75.1016C144.857 75.138 144.615 75.1562 144.344 75.1562C143.88 75.1562 143.474 75.0781 143.125 74.9219C142.776 74.7604 142.505 74.5026 142.312 74.1484C142.12 73.7891 142.023 73.3151 142.023 72.7266V64.4688ZM149.133 66.5469V75H147.062V66.5469H149.133ZM146.922 64.3359C146.922 64.0286 147.026 63.7734 147.234 63.5703C147.448 63.3672 147.734 63.2656 148.094 63.2656C148.453 63.2656 148.737 63.3672 148.945 63.5703C149.159 63.7734 149.266 64.0286 149.266 64.3359C149.266 64.638 149.159 64.8906 148.945 65.0938C148.737 65.2969 148.453 65.3984 148.094 65.3984C147.734 65.3984 147.448 65.2969 147.234 65.0938C147.026 64.8906 146.922 64.638 146.922 64.3359ZM153.125 68.3516V75H151.062V66.5469H153L153.125 68.3516ZM152.797 70.4688H152.188C152.193 69.8542 152.276 69.2969 152.438 68.7969C152.599 68.2969 152.826 67.8672 153.117 67.5078C153.414 67.1484 153.766 66.8724 154.172 66.6797C154.578 66.487 155.031 66.3906 155.531 66.3906C155.938 66.3906 156.305 66.4479 156.633 66.5625C156.961 66.6771 157.242 66.8594 157.477 67.1094C157.716 67.3594 157.898 67.6875 158.023 68.0938C158.154 68.4948 158.219 68.9896 158.219 69.5781V75H156.141V69.5625C156.141 69.1771 156.083 68.8724 155.969 68.6484C155.859 68.4245 155.698 68.2656 155.484 68.1719C155.276 68.0781 155.018 68.0312 154.711 68.0312C154.393 68.0312 154.115 68.0964 153.875 68.2266C153.641 68.3516 153.443 68.526 153.281 68.75C153.125 68.974 153.005 69.2318 152.922 69.5234C152.839 69.8151 152.797 70.1302 152.797 70.4688ZM165.414 66.5469H167.289V74.7422C167.289 75.5078 167.122 76.1562 166.789 76.6875C166.461 77.224 166 77.6302 165.406 77.9062C164.812 78.1875 164.122 78.3281 163.336 78.3281C162.997 78.3281 162.63 78.2812 162.234 78.1875C161.844 78.0938 161.466 77.9453 161.102 77.7422C160.742 77.5443 160.443 77.2865 160.203 76.9688L161.133 75.75C161.414 76.0781 161.732 76.3255 162.086 76.4922C162.44 76.6641 162.823 76.75 163.234 76.75C163.651 76.75 164.005 76.6719 164.297 76.5156C164.594 76.3646 164.82 76.1406 164.977 75.8438C165.138 75.5521 165.219 75.1927 165.219 74.7656V68.4766L165.414 66.5469ZM159.703 70.875V70.7109C159.703 70.0651 159.781 69.4792 159.938 68.9531C160.094 68.4219 160.318 67.9661 160.609 67.5859C160.906 67.2057 161.263 66.9115 161.68 66.7031C162.102 66.4948 162.576 66.3906 163.102 66.3906C163.659 66.3906 164.128 66.4922 164.508 66.6953C164.893 66.8984 165.211 67.1875 165.461 67.5625C165.716 67.9375 165.914 68.3828 166.055 68.8984C166.201 69.4089 166.312 69.9714 166.391 70.5859V71.0312C166.318 71.6302 166.201 72.1797 166.039 72.6797C165.883 73.1797 165.674 73.6172 165.414 73.9922C165.154 74.362 164.831 74.6484 164.445 74.8516C164.06 75.0547 163.607 75.1562 163.086 75.1562C162.565 75.1562 162.096 75.0495 161.68 74.8359C161.263 74.6224 160.906 74.3229 160.609 73.9375C160.318 73.5521 160.094 73.099 159.938 72.5781C159.781 72.0573 159.703 71.4896 159.703 70.875ZM161.766 70.7109V70.875C161.766 71.2396 161.802 71.5807 161.875 71.8984C161.948 72.2161 162.06 72.4974 162.211 72.7422C162.362 72.9818 162.552 73.1693 162.781 73.3047C163.01 73.4401 163.284 73.5078 163.602 73.5078C164.029 73.5078 164.378 73.4193 164.648 73.2422C164.924 73.0599 165.133 72.8125 165.273 72.5C165.419 72.1823 165.513 71.8255 165.555 71.4297V70.2031C165.529 69.8906 165.471 69.6016 165.383 69.3359C165.299 69.0703 165.182 68.8411 165.031 68.6484C164.88 68.4557 164.688 68.3047 164.453 68.1953C164.219 68.0859 163.94 68.0312 163.617 68.0312C163.305 68.0312 163.031 68.1016 162.797 68.2422C162.562 68.3776 162.37 68.5677 162.219 68.8125C162.068 69.0573 161.953 69.3411 161.875 69.6641C161.802 69.987 161.766 70.3359 161.766 70.7109ZM175.836 75H173.758V65.7656C173.758 65.1302 173.88 64.5964 174.125 64.1641C174.37 63.7266 174.719 63.3958 175.172 63.1719C175.625 62.9479 176.159 62.8359 176.773 62.8359C176.977 62.8359 177.169 62.849 177.352 62.875C177.539 62.901 177.724 62.9375 177.906 62.9844L177.867 64.5547C177.768 64.5286 177.659 64.5104 177.539 64.5C177.424 64.4896 177.297 64.4844 177.156 64.4844C176.875 64.4844 176.635 64.5339 176.438 64.6328C176.24 64.7318 176.089 64.8776 175.984 65.0703C175.885 65.2578 175.836 65.4896 175.836 65.7656V75ZM177.547 66.5469V68.0312H172.484V66.5469H177.547ZM178.453 70.8594V70.6953C178.453 70.0755 178.542 69.5052 178.719 68.9844C178.896 68.4583 179.154 68.0026 179.492 67.6172C179.831 67.2318 180.245 66.9323 180.734 66.7188C181.224 66.5 181.781 66.3906 182.406 66.3906C183.042 66.3906 183.604 66.5 184.094 66.7188C184.589 66.9323 185.005 67.2318 185.344 67.6172C185.682 68.0026 185.94 68.4583 186.117 68.9844C186.294 69.5052 186.383 70.0755 186.383 70.6953V70.8594C186.383 71.474 186.294 72.0443 186.117 72.5703C185.94 73.0911 185.682 73.5469 185.344 73.9375C185.005 74.3229 184.591 74.6224 184.102 74.8359C183.612 75.0495 183.052 75.1562 182.422 75.1562C181.797 75.1562 181.237 75.0495 180.742 74.8359C180.247 74.6224 179.831 74.3229 179.492 73.9375C179.154 73.5469 178.896 73.0911 178.719 72.5703C178.542 72.0443 178.453 71.474 178.453 70.8594ZM180.516 70.6953V70.8594C180.516 71.2292 180.552 71.5755 180.625 71.8984C180.698 72.2214 180.81 72.5052 180.961 72.75C181.112 72.9948 181.307 73.1875 181.547 73.3281C181.792 73.4635 182.083 73.5312 182.422 73.5312C182.755 73.5312 183.042 73.4635 183.281 73.3281C183.521 73.1875 183.716 72.9948 183.867 72.75C184.023 72.5052 184.138 72.2214 184.211 71.8984C184.284 71.5755 184.32 71.2292 184.32 70.8594V70.6953C184.32 70.3307 184.284 69.9896 184.211 69.6719C184.138 69.349 184.023 69.0651 183.867 68.8203C183.716 68.5703 183.518 68.375 183.273 68.2344C183.034 68.0885 182.745 68.0156 182.406 68.0156C182.073 68.0156 181.786 68.0885 181.547 68.2344C181.307 68.375 181.112 68.5703 180.961 68.8203C180.81 69.0651 180.698 69.349 180.625 69.6719C180.552 69.9896 180.516 70.3307 180.516 70.6953ZM189.945 68.2734V75H187.883V66.5469H189.836L189.945 68.2734ZM192.516 66.4922L192.484 68.4141C192.37 68.3932 192.24 68.3776 192.094 68.3672C191.953 68.3568 191.82 68.3516 191.695 68.3516C191.378 68.3516 191.099 68.3958 190.859 68.4844C190.62 68.5677 190.419 68.6901 190.258 68.8516C190.102 69.013 189.982 69.2109 189.898 69.4453C189.815 69.6745 189.768 69.9349 189.758 70.2266L189.312 70.1719C189.312 69.6354 189.367 69.138 189.477 68.6797C189.586 68.2214 189.745 67.8203 189.953 67.4766C190.161 67.1328 190.422 66.8672 190.734 66.6797C191.052 66.487 191.417 66.3906 191.828 66.3906C191.943 66.3906 192.065 66.401 192.195 66.4219C192.331 66.4375 192.438 66.4609 192.516 66.4922ZM201.633 66.5469V68.0312H196.789V66.5469H201.633ZM198.086 64.4688H200.156V72.5625C200.156 72.8125 200.19 73.0052 200.258 73.1406C200.326 73.276 200.427 73.3672 200.562 73.4141C200.698 73.4609 200.859 73.4844 201.047 73.4844C201.182 73.4844 201.307 73.4766 201.422 73.4609C201.536 73.4453 201.633 73.4297 201.711 73.4141L201.719 74.9609C201.547 75.0182 201.352 75.0651 201.133 75.1016C200.919 75.138 200.677 75.1562 200.406 75.1562C199.943 75.1562 199.536 75.0781 199.188 74.9219C198.839 74.7604 198.568 74.5026 198.375 74.1484C198.182 73.7891 198.086 73.3151 198.086 72.7266V64.4688ZM205.031 63V75H202.961V63H205.031ZM204.703 70.4688H204.094C204.094 69.8802 204.172 69.3385 204.328 68.8438C204.484 68.349 204.706 67.9193 204.992 67.5547C205.279 67.1849 205.62 66.8984 206.016 66.6953C206.417 66.4922 206.859 66.3906 207.344 66.3906C207.76 66.3906 208.138 66.4505 208.477 66.5703C208.82 66.6849 209.115 66.8698 209.359 67.125C209.604 67.3802 209.792 67.7135 209.922 68.125C210.057 68.5312 210.125 69.026 210.125 69.6094V75H208.047V69.5938C208.047 69.2031 207.99 68.8958 207.875 68.6719C207.76 68.4427 207.596 68.2786 207.383 68.1797C207.174 68.0807 206.917 68.0312 206.609 68.0312C206.276 68.0312 205.99 68.0964 205.75 68.2266C205.51 68.3516 205.312 68.526 205.156 68.75C205.005 68.974 204.891 69.2318 204.812 69.5234C204.74 69.8151 204.703 70.1302 204.703 70.4688ZM215.742 75.1562C215.102 75.1562 214.526 75.0521 214.016 74.8438C213.505 74.6354 213.07 74.3464 212.711 73.9766C212.357 73.6016 212.083 73.1667 211.891 72.6719C211.703 72.1719 211.609 71.6354 211.609 71.0625V70.75C211.609 70.099 211.703 69.5078 211.891 68.9766C212.078 68.4401 212.344 67.9792 212.688 67.5938C213.031 67.2083 213.443 66.9115 213.922 66.7031C214.401 66.4948 214.93 66.3906 215.508 66.3906C216.107 66.3906 216.635 66.4922 217.094 66.6953C217.552 66.8932 217.935 67.1745 218.242 67.5391C218.549 67.9036 218.781 68.3411 218.938 68.8516C219.094 69.3568 219.172 69.9167 219.172 70.5312V71.3984H212.547V69.9766H217.141V69.8203C217.13 69.4922 217.068 69.1927 216.953 68.9219C216.839 68.6458 216.661 68.4271 216.422 68.2656C216.182 68.099 215.872 68.0156 215.492 68.0156C215.185 68.0156 214.917 68.0833 214.688 68.2188C214.464 68.349 214.276 68.5365 214.125 68.7812C213.979 69.0208 213.87 69.3073 213.797 69.6406C213.724 69.974 213.688 70.3438 213.688 70.75V71.0625C213.688 71.4167 213.734 71.7448 213.828 72.0469C213.927 72.349 214.07 72.612 214.258 72.8359C214.451 73.0547 214.68 73.2266 214.945 73.3516C215.216 73.4714 215.523 73.5312 215.867 73.5312C216.299 73.5312 216.69 73.4479 217.039 73.2812C217.393 73.1094 217.701 72.8568 217.961 72.5234L219 73.6016C218.823 73.862 218.583 74.112 218.281 74.3516C217.984 74.5911 217.625 74.7865 217.203 74.9375C216.781 75.0833 216.294 75.1562 215.742 75.1562ZM228.539 66.5469V68.0312H223.695V66.5469H228.539ZM224.992 64.4688H227.062V72.5625C227.062 72.8125 227.096 73.0052 227.164 73.1406C227.232 73.276 227.333 73.3672 227.469 73.4141C227.604 73.4609 227.766 73.4844 227.953 73.4844C228.089 73.4844 228.214 73.4766 228.328 73.4609C228.443 73.4453 228.539 73.4297 228.617 73.4141L228.625 74.9609C228.453 75.0182 228.258 75.0651 228.039 75.1016C227.826 75.138 227.583 75.1562 227.312 75.1562C226.849 75.1562 226.443 75.0781 226.094 74.9219C225.745 74.7604 225.474 74.5026 225.281 74.1484C225.089 73.7891 224.992 73.3151 224.992 72.7266V64.4688ZM233.711 75.1562C233.07 75.1562 232.495 75.0521 231.984 74.8438C231.474 74.6354 231.039 74.3464 230.68 73.9766C230.326 73.6016 230.052 73.1667 229.859 72.6719C229.672 72.1719 229.578 71.6354 229.578 71.0625V70.75C229.578 70.099 229.672 69.5078 229.859 68.9766C230.047 68.4401 230.312 67.9792 230.656 67.5938C231 67.2083 231.411 66.9115 231.891 66.7031C232.37 66.4948 232.898 66.3906 233.477 66.3906C234.076 66.3906 234.604 66.4922 235.062 66.6953C235.521 66.8932 235.904 67.1745 236.211 67.5391C236.518 67.9036 236.75 68.3411 236.906 68.8516C237.062 69.3568 237.141 69.9167 237.141 70.5312V71.3984H230.516V69.9766H235.109V69.8203C235.099 69.4922 235.036 69.1927 234.922 68.9219C234.807 68.6458 234.63 68.4271 234.391 68.2656C234.151 68.099 233.841 68.0156 233.461 68.0156C233.154 68.0156 232.885 68.0833 232.656 68.2188C232.432 68.349 232.245 68.5365 232.094 68.7812C231.948 69.0208 231.839 69.3073 231.766 69.6406C231.693 69.974 231.656 70.3438 231.656 70.75V71.0625C231.656 71.4167 231.703 71.7448 231.797 72.0469C231.896 72.349 232.039 72.612 232.227 72.8359C232.419 73.0547 232.648 73.2266 232.914 73.3516C233.185 73.4714 233.492 73.5312 233.836 73.5312C234.268 73.5312 234.659 73.4479 235.008 73.2812C235.362 73.1094 235.669 72.8568 235.93 72.5234L236.969 73.6016C236.792 73.862 236.552 74.112 236.25 74.3516C235.953 74.5911 235.594 74.7865 235.172 74.9375C234.75 75.0833 234.263 75.1562 233.711 75.1562ZM243.18 73.2031V69.3047C243.18 69.0182 243.13 68.7708 243.031 68.5625C242.932 68.3542 242.781 68.1927 242.578 68.0781C242.375 67.9635 242.117 67.9062 241.805 67.9062C241.529 67.9062 241.286 67.9531 241.078 68.0469C240.875 68.1406 240.719 68.2734 240.609 68.4453C240.5 68.612 240.445 68.8047 240.445 69.0234H238.375C238.375 68.6745 238.458 68.3438 238.625 68.0312C238.792 67.7135 239.029 67.4323 239.336 67.1875C239.648 66.9375 240.021 66.7422 240.453 66.6016C240.891 66.4609 241.38 66.3906 241.922 66.3906C242.562 66.3906 243.133 66.5 243.633 66.7188C244.138 66.9323 244.534 67.2552 244.82 67.6875C245.112 68.1198 245.258 68.6641 245.258 69.3203V73.0078C245.258 73.4297 245.284 73.7917 245.336 74.0938C245.393 74.3906 245.477 74.6484 245.586 74.8672V75H243.484C243.385 74.7865 243.31 74.5156 243.258 74.1875C243.206 73.8542 243.18 73.526 243.18 73.2031ZM243.469 69.8516L243.484 71.0781H242.18C241.857 71.0781 241.573 71.112 241.328 71.1797C241.083 71.2422 240.883 71.3359 240.727 71.4609C240.57 71.5807 240.453 71.7266 240.375 71.8984C240.297 72.0651 240.258 72.2552 240.258 72.4688C240.258 72.6771 240.305 72.8646 240.398 73.0312C240.497 73.1979 240.638 73.3307 240.82 73.4297C241.008 73.5234 241.227 73.5703 241.477 73.5703C241.841 73.5703 242.159 73.4974 242.43 73.3516C242.701 73.2005 242.911 73.0182 243.062 72.8047C243.214 72.5911 243.294 72.388 243.305 72.1953L243.898 73.0859C243.826 73.2995 243.716 73.526 243.57 73.7656C243.424 74.0052 243.237 74.2292 243.008 74.4375C242.779 74.6458 242.503 74.8177 242.18 74.9531C241.857 75.0885 241.482 75.1562 241.055 75.1562C240.508 75.1562 240.018 75.0469 239.586 74.8281C239.154 74.6094 238.812 74.3099 238.562 73.9297C238.312 73.5495 238.188 73.1172 238.188 72.6328C238.188 72.1849 238.271 71.7891 238.438 71.4453C238.604 71.1016 238.852 70.8125 239.18 70.5781C239.508 70.3385 239.914 70.1589 240.398 70.0391C240.888 69.9141 241.448 69.8516 242.078 69.8516H243.469ZM249.172 68.2812V75H247.109V66.5469H249.055L249.172 68.2812ZM248.867 70.4688H248.234C248.234 69.8802 248.305 69.3385 248.445 68.8438C248.591 68.349 248.805 67.9193 249.086 67.5547C249.367 67.1849 249.714 66.8984 250.125 66.6953C250.542 66.4922 251.023 66.3906 251.57 66.3906C251.951 66.3906 252.299 66.4479 252.617 66.5625C252.935 66.6719 253.208 66.8464 253.438 67.0859C253.672 67.3203 253.852 67.6276 253.977 68.0078C254.102 68.3828 254.164 68.8333 254.164 69.3594V75H252.102V69.5703C252.102 69.1745 252.044 68.8646 251.93 68.6406C251.82 68.4167 251.661 68.2604 251.453 68.1719C251.245 68.0781 250.995 68.0312 250.703 68.0312C250.38 68.0312 250.102 68.0964 249.867 68.2266C249.638 68.3516 249.448 68.526 249.297 68.75C249.151 68.974 249.042 69.2318 248.969 69.5234C248.901 69.8151 248.867 70.1302 248.867 70.4688ZM254.008 70.0859L253.156 70.2422C253.161 69.7109 253.234 69.2135 253.375 68.75C253.516 68.2812 253.721 67.8724 253.992 67.5234C254.268 67.1693 254.609 66.8932 255.016 66.6953C255.427 66.4922 255.901 66.3906 256.438 66.3906C256.854 66.3906 257.229 66.4505 257.562 66.5703C257.901 66.6849 258.19 66.8698 258.43 67.125C258.669 67.375 258.852 67.7005 258.977 68.1016C259.107 68.5026 259.172 68.9922 259.172 69.5703V75H257.094V69.5625C257.094 69.151 257.036 68.8359 256.922 68.6172C256.812 68.3984 256.654 68.2474 256.445 68.1641C256.237 68.0755 255.992 68.0312 255.711 68.0312C255.424 68.0312 255.174 68.0859 254.961 68.1953C254.753 68.2995 254.576 68.4453 254.43 68.6328C254.289 68.8203 254.182 69.0391 254.109 69.2891C254.042 69.5339 254.008 69.7995 254.008 70.0859ZM263.375 63.625L263.148 71.5859H261.406L261.18 63.625H263.375ZM261.117 74.0391C261.117 73.7318 261.221 73.474 261.43 73.2656C261.643 73.0521 261.93 72.9453 262.289 72.9453C262.648 72.9453 262.932 73.0521 263.141 73.2656C263.354 73.474 263.461 73.7318 263.461 74.0391C263.461 74.3411 263.354 74.5964 263.141 74.8047C262.932 75.013 262.648 75.1172 262.289 75.1172C261.93 75.1172 261.643 75.013 261.43 74.8047C261.221 74.5964 261.117 74.3411 261.117 74.0391Z" fill="#707070"/>
<defs>
<radialGradient id="paint0_radial_2_460" cx="0" cy="0" r="1" gradientUnits="userSpaceOnUse" gradientTransform="translate(162.207 120.446) rotate(90) scale(4.5429 3.2252)">
<stop stop-color="#FFBBBB"/>
<stop offset="1" stop-color="#FFBBBB" stop-opacity="0"/>
</radialGradient>
<radialGradient id="paint1_radial_2_460" cx="0" cy="0" r="1" gradientUnits="userSpaceOnUse" gradientTransform="translate(148.546 119.983) rotate(90) scale(4.5429 3.2252)">
<stop stop-color="#FFBBBB"/>
<stop offset="1" stop-color="#FFBBBB" stop-opacity="0"/>
</radialGradient>
</defs>
</svg>
